<?xml version="1.0" encoding="UTF-8"?>
<!DOCTYPE svg PUBLIC "-//W3C//DTD SVG 1.1//EN" "http://www.w3.org/Graphics/SVG/1.1/DTD/svg11.dtd">
<!-- Creator: CorelDRAW X7 -->
<svg xmlns="http://www.w3.org/2000/svg" xml:space="preserve" width="279.4mm" height="215.9mm" version="1.1" style="shape-rendering:geometricPrecision; text-rendering:geometricPrecision; image-rendering:optimizeQuality; fill-rule:evenodd; clip-rule:evenodd"
viewBox="0 0 27940 21590"
 xmlns:xlink="http://www.w3.org/1999/xlink">
 <defs>
  <style type="text/css">
   <![CDATA[
    .fil3 {fill:none}
    .fil1 {fill:#FEFEFE}
    .fil2 {fill:#E6E7E8}
    .fil5 {fill:#D2D3D5}
    .fil0 {fill:black}
    .fil10 {fill:url(#id6)}
    .fil13 {fill:url(#id7)}
    .fil11 {fill:url(#id8)}
    .fil20 {fill:url(#id9)}
    .fil18 {fill:url(#id10)}
    .fil8 {fill:url(#id11)}
    .fil9 {fill:url(#id12)}
    .fil12 {fill:url(#id13)}
    .fil17 {fill:url(#id14)}
    .fil19 {fill:url(#id15)}
    .fil16 {fill:url(#id16)}
    .fil7 {fill:url(#id17)}
    .fil22 {fill:url(#id18)}
    .fil4 {fill:url(#id19)}
    .fil15 {fill:url(#id20)}
    .fil21 {fill:url(#id21)}
    .fil6 {fill:url(#id22)}
    .fil14 {fill:url(#id23)}
   ]]>
  </style>
    <clipPath id="id0">
     <path d="M7045 4484l2309 -861 -1777 1353 0 0c47,99 72,209 72,325 0,144 -48,342 -77,483 58,416 310,904 310,904 52,77 82,170 82,269 0,267 -216,483 -483,483 -266,0 -452,-399 -961,-572l0 0 0 0c-44,-15 -90,-28 -139,-40 0,1 -30,-7 -32,-8 -14,-4 -25,-7 -31,-8 -402,-122 -694,-494 -694,-935 0,-11 0,-21 1,-32 -3,31 -4,63 -4,94 0,535 331,991 800,1177l0 0 16 7c134,520 440,972 854,1289 -83,64 -170,122 -260,174 -106,-296 -299,-565 -573,-764 -7,-5 -14,-10 -21,-14 -604,-425 -1207,-342 -1729,-270 -626,87 -1111,154 -1212,-1088 -2,-18 -6,-36 -13,-51 66,-1206 1033,-2172 2239,-2235 -1,-17 -3,-37 -4,-60 -5,-157 50,-389 365,-541 514,-248 794,-301 794,-301 0,0 236,-8 -392,985 168,46 329,111 480,192l-184 135 264 -90 0 0 0 0zm-4043 2209l-415 173 -133 55c-4,41 -14,81 -29,120 -89,227 -345,339 -572,251 -227,-89 -339,-345 -250,-573 44,-114 132,-199 237,-244 189,-82 155,-160 238,-372 74,-189 161,-259 82,-424 -51,-106 -59,-233 -13,-352 89,-227 345,-339 572,-250 228,89 340,345 251,572 -16,40 -36,76 -61,108l60 132 192 419 86 34c-10,8 -20,17 -27,27 -85,99 -159,207 -218,324zm-499 -1063c78,30 166,-8 197,-86 30,-78 -8,-167 -86,-197 -78,-31 -166,8 -197,86 -30,78 8,166 86,197zm-348 1306c31,-78 -8,-166 -86,-197 -78,-31 -166,8 -197,86 -30,78 8,166 86,197 79,30 167,-8 197,-86zm4950 -1019c42,-130 5,-278 -104,-373 -77,-68 -176,-95 -270,-85 -41,130 -5,278 104,373 78,67 176,95 270,85zm777 771l0 0z"/>
    </clipPath>
    <clipPath id="id1">
     <path d="M15644 4484l2308 -861 -1776 1353 0 0c46,99 72,209 72,325 0,144 -48,342 -78,483 59,416 311,904 311,904 52,77 82,170 82,269 0,267 -216,483 -483,483 -266,0 -452,-399 -961,-572l0 0 -1 0c-43,-15 -89,-28 -138,-40 0,1 -30,-7 -33,-8 -13,-4 -24,-7 -30,-8 -402,-122 -694,-494 -694,-935 0,-11 0,-21 0,-32 -2,31 -3,63 -3,94 0,535 331,991 800,1177l0 0 16 7c134,520 440,972 854,1289 -83,64 -170,122 -261,174 -105,-296 -298,-565 -572,-764 -7,-5 -14,-10 -21,-14 -604,-425 -1207,-342 -1729,-270 -626,87 -1111,154 -1212,-1088 -2,-18 -6,-36 -13,-51 66,-1206 1033,-2172 2239,-2235 -2,-17 -3,-37 -4,-60 -5,-157 49,-389 365,-541 514,-248 794,-301 794,-301 0,0 236,-8 -393,985 169,46 330,111 481,192l-184 135 264 -90 0 0 0 0zm-4043 2209l-415 173 -134 55c-3,41 -13,81 -28,120 -89,227 -345,339 -572,251 -227,-89 -339,-345 -251,-573 45,-114 133,-199 238,-244 189,-82 155,-160 238,-372 74,-189 161,-259 82,-424 -51,-106 -59,-233 -13,-352 89,-227 345,-339 572,-250 227,89 339,345 251,572 -16,40 -36,76 -61,108l60 132 192 419 85 34c-10,8 -19,17 -26,27 -86,99 -159,207 -218,324zm-499 -1063c78,30 166,-8 197,-86 30,-78 -8,-167 -86,-197 -78,-31 -166,8 -197,86 -31,78 8,166 86,197zm-348 1306c31,-78 -8,-166 -86,-197 -78,-31 -166,8 -197,86 -30,78 8,166 86,197 78,30 166,-8 197,-86zm4950 -1019c42,-130 5,-278 -104,-373 -78,-68 -176,-95 -270,-85 -42,130 -5,278 104,373 78,67 176,95 270,85zm777 771l0 0z"/>
    </clipPath>
    <clipPath id="id2">
     <path d="M24060 4484l2308 -861 -1776 1353 0 0c46,99 72,209 72,325 0,144 -48,342 -78,483 59,416 311,904 311,904 51,77 81,170 81,269 0,267 -216,483 -482,483 -267,0 -453,-399 -962,-572l0 0 0 0c-44,-15 -90,-28 -138,-40 0,1 -30,-7 -33,-8 -14,-4 -24,-7 -31,-8 -401,-122 -693,-494 -693,-935 0,-11 0,-21 0,-32 -2,31 -3,63 -3,94 0,535 331,991 799,1177l0 0 17 7c134,520 440,972 854,1289 -83,64 -170,122 -261,174 -106,-296 -299,-565 -573,-764 -6,-5 -13,-10 -21,-14 -604,-425 -1207,-342 -1729,-270 -625,87 -1111,154 -1212,-1088 -1,-18 -6,-36 -13,-51 67,-1206 1033,-2172 2240,-2235 -2,-17 -3,-37 -4,-60 -5,-157 49,-389 364,-541 514,-248 794,-301 794,-301 0,0 237,-8 -392,985 169,46 330,111 481,192l-185 135 265 -90 0 0 0 0zm-4044 2209l-415 173 -133 55c-4,41 -13,81 -29,120 -88,227 -345,339 -572,251 -227,-89 -339,-345 -250,-573 45,-114 132,-199 237,-244 189,-82 155,-160 238,-372 74,-189 162,-259 83,-424 -51,-106 -60,-233 -13,-352 89,-227 345,-339 572,-250 227,89 339,345 250,572 -15,40 -36,76 -61,108l61 132 192 419 85 34c-10,8 -19,17 -27,27 -85,99 -158,207 -218,324zm-498 -1063c78,30 166,-8 196,-86 31,-78 -8,-167 -86,-197 -78,-31 -166,8 -196,86 -31,78 8,166 86,197zm-348 1306c30,-78 -8,-166 -87,-197 -78,-31 -166,8 -196,86 -31,78 8,166 86,197 78,30 166,-8 197,-86zm4950 -1019c41,-130 5,-278 -105,-373 -77,-68 -175,-95 -270,-85 -41,130 -5,278 105,373 77,67 175,95 270,85zm777 771l0 0z"/>
    </clipPath>
    <clipPath id="id3">
     <path d="M7045 12866l2309 -861 -1777 1353 0 0c47,99 72,209 72,326 0,143 -48,341 -77,483 58,415 310,903 310,903 52,77 82,170 82,269 0,267 -216,483 -483,483 -266,0 -452,-399 -961,-572l0 0 0 0c-44,-15 -90,-28 -139,-39 0,0 -30,-8 -32,-9 -14,-3 -25,-6 -31,-8 -402,-121 -694,-494 -694,-935 0,-10 0,-21 1,-32 -3,31 -4,63 -4,95 0,534 331,991 800,1176l0 0 16 8c134,520 440,971 854,1288 -83,64 -170,122 -260,174 -106,-296 -299,-565 -573,-763 -7,-6 -14,-11 -21,-15 -604,-425 -1207,-342 -1729,-269 -626,86 -1111,153 -1212,-1089 -2,-18 -6,-35 -13,-51 66,-1206 1033,-2171 2239,-2235 -1,-17 -3,-37 -4,-60 -5,-157 50,-388 365,-541 514,-248 794,-301 794,-301 0,0 236,-8 -392,985 168,47 329,112 480,192l-184 135 264 -90 0 0 0 0zm-4043 2209l-415 173 -133 56c-4,40 -14,80 -29,120 -89,227 -345,339 -572,250 -227,-89 -339,-345 -250,-572 44,-115 132,-200 237,-245 189,-81 155,-160 238,-372 74,-189 161,-259 82,-423 -51,-107 -59,-234 -13,-352 89,-227 345,-340 572,-251 228,89 340,345 251,572 -16,40 -36,76 -61,108l60 132 192 419 86 34c-10,8 -20,17 -27,27 -85,99 -159,207 -218,324zm-499 -1063c78,30 166,-8 197,-86 30,-78 -8,-166 -86,-197 -78,-30 -166,8 -197,86 -30,78 8,166 86,197zm-348 1306c31,-78 -8,-166 -86,-197 -78,-30 -166,8 -197,86 -30,78 8,166 86,197 79,31 167,-8 197,-86zm4950 -1019c42,-130 5,-278 -104,-373 -77,-67 -176,-95 -270,-85 -41,130 -5,278 104,373 78,68 176,95 270,85zm777 771l0 0z"/>
    </clipPath>
    <clipPath id="id4">
     <path d="M15644 12866l2308 -861 -1776 1353 0 0c46,99 72,209 72,326 0,143 -48,341 -78,483 59,415 311,903 311,903 52,77 82,170 82,269 0,267 -216,483 -483,483 -266,0 -452,-399 -961,-572l0 0 -1 0c-43,-15 -89,-28 -138,-39 0,0 -30,-8 -33,-9 -13,-3 -24,-6 -30,-8 -402,-121 -694,-494 -694,-935 0,-10 0,-21 0,-32 -2,31 -3,63 -3,95 0,534 331,991 800,1176l0 0 16 8c134,520 440,971 854,1288 -83,64 -170,122 -261,174 -105,-296 -298,-565 -572,-763 -7,-6 -14,-11 -21,-15 -604,-425 -1207,-342 -1729,-269 -626,86 -1111,153 -1212,-1089 -2,-18 -6,-35 -13,-51 66,-1206 1033,-2171 2239,-2235 -2,-17 -3,-37 -4,-60 -5,-157 49,-388 365,-541 514,-248 794,-301 794,-301 0,0 236,-8 -393,985 169,47 330,112 481,192l-184 135 264 -90 0 0 0 0zm-4043 2209l-415 173 -134 56c-3,40 -13,80 -28,120 -89,227 -345,339 -572,250 -227,-89 -339,-345 -251,-572 45,-115 133,-200 238,-245 189,-81 155,-160 238,-372 74,-189 161,-259 82,-423 -51,-107 -59,-234 -13,-352 89,-227 345,-340 572,-251 227,89 339,345 251,572 -16,40 -36,76 -61,108l60 132 192 419 85 34c-10,8 -19,17 -26,27 -86,99 -159,207 -218,324zm-499 -1063c78,30 166,-8 197,-86 30,-78 -8,-166 -86,-197 -78,-30 -166,8 -197,86 -31,78 8,166 86,197zm-348 1306c31,-78 -8,-166 -86,-197 -78,-30 -166,8 -197,86 -30,78 8,166 86,197 78,31 166,-8 197,-86zm4950 -1019c42,-130 5,-278 -104,-373 -78,-67 -176,-95 -270,-85 -42,130 -5,278 104,373 78,68 176,95 270,85zm777 771l0 0z"/>
    </clipPath>
    <clipPath id="id5">
     <path d="M24060 12866l2308 -861 -1776 1353 0 0c46,99 72,209 72,326 0,143 -48,341 -78,483 59,415 311,903 311,903 51,77 81,170 81,269 0,267 -216,483 -482,483 -267,0 -453,-399 -962,-572l0 0 0 0c-44,-15 -90,-28 -138,-39 0,0 -30,-8 -33,-9 -14,-3 -24,-6 -31,-8 -401,-121 -693,-494 -693,-935 0,-10 0,-21 0,-32 -2,31 -3,63 -3,95 0,534 331,991 799,1176l0 0 17 8c134,520 440,971 854,1288 -83,64 -170,122 -261,174 -106,-296 -299,-565 -573,-763 -6,-6 -13,-11 -21,-15 -604,-425 -1207,-342 -1729,-269 -625,86 -1111,153 -1212,-1089 -1,-18 -6,-35 -13,-51 67,-1206 1033,-2171 2240,-2235 -2,-17 -3,-37 -4,-60 -5,-157 49,-388 364,-541 514,-248 794,-301 794,-301 0,0 237,-8 -392,985 169,47 330,112 481,192l-185 135 265 -90 0 0 0 0zm-4044 2209l-415 173 -133 56c-4,40 -13,80 -29,120 -88,227 -345,339 -572,250 -227,-89 -339,-345 -250,-572 45,-115 132,-200 237,-245 189,-81 155,-160 238,-372 74,-189 162,-259 83,-423 -51,-107 -60,-234 -13,-352 89,-227 345,-340 572,-251 227,89 339,345 250,572 -15,40 -36,76 -61,108l61 132 192 419 85 34c-10,8 -19,17 -27,27 -85,99 -158,207 -218,324zm-498 -1063c78,30 166,-8 196,-86 31,-78 -8,-166 -86,-197 -78,-30 -166,8 -196,86 -31,78 8,166 86,197zm-348 1306c30,-78 -8,-166 -87,-197 -78,-30 -166,8 -196,86 -31,78 8,166 86,197 78,31 166,-8 197,-86zm4950 -1019c41,-130 5,-278 -105,-373 -77,-67 -175,-95 -270,-85 -41,130 -5,278 105,373 77,68 175,95 270,85zm777 771l0 0z"/>
    </clipPath>
  <linearGradient id="id6" gradientUnits="userSpaceOnUse" x1="15424.6" y1="4874.34" x2="16628.7" y2="4900.24">
   <stop offset="0" style="stop-opacity:1; stop-color:#F58634"/>
   <stop offset="1" style="stop-opacity:1; stop-color:#F7D917"/>
  </linearGradient>
  <linearGradient id="id7" gradientUnits="userSpaceOnUse" x1="24469" y1="5620.54" x2="24415.3" y2="4154.04">
   <stop offset="0" style="stop-opacity:1; stop-color:#EC268F"/>
   <stop offset="1" style="stop-opacity:1; stop-color:#ED2E38"/>
  </linearGradient>
  <linearGradient id="id8" gradientUnits="userSpaceOnUse" xlink:href="#id7" x1="22054.1" y1="9992.49" x2="21925" y2="6464.85">
  </linearGradient>
  <linearGradient id="id9" gradientUnits="userSpaceOnUse" x1="22054.1" y1="18374.7" x2="21925" y2="14847.1">
   <stop offset="0" style="stop-opacity:1; stop-color:#EC268F"/>
   <stop offset="1" style="stop-opacity:1; stop-color:#6600A1"/>
  </linearGradient>
  <linearGradient id="id10" gradientUnits="userSpaceOnUse" x1="12528.7" y1="16338.2" x2="12620.5" y2="12068.5">
   <stop offset="0" style="stop-opacity:1; stop-color:#4E77B9"/>
   <stop offset="1" style="stop-opacity:1; stop-color:#00A6D6"/>
  </linearGradient>
  <linearGradient id="id11" gradientUnits="userSpaceOnUse" xlink:href="#id6" x1="11582.2" y1="8185.83" x2="15565.9" y2="8271.51">
  </linearGradient>
  <linearGradient id="id12" gradientUnits="userSpaceOnUse" xlink:href="#id6" x1="10956.6" y1="5786.32" x2="14192.6" y2="5855.91">
  </linearGradient>
  <linearGradient id="id13" gradientUnits="userSpaceOnUse" xlink:href="#id7" x1="21067.5" y1="7933.77" x2="20912.9" y2="3708.45">
  </linearGradient>
  <linearGradient id="id14" gradientUnits="userSpaceOnUse" xlink:href="#id10" x1="13535.9" y1="18383.6" x2="13612.1" y2="14838.2">
  </linearGradient>
  <linearGradient id="id15" gradientUnits="userSpaceOnUse" xlink:href="#id10" x1="16010.7" y1="14009.9" x2="16042.5" y2="12529.2">
  </linearGradient>
  <linearGradient id="id16" gradientUnits="userSpaceOnUse" x1="6841.54" y1="13499.3" x2="8013.95" y2="13039.8">
   <stop offset="0" style="stop-opacity:1; stop-color:#A8CF45"/>
   <stop offset="1" style="stop-opacity:1; stop-color:#00AB59"/>
  </linearGradient>
  <linearGradient id="id17" gradientUnits="userSpaceOnUse" x1="6888.22" y1="4865.71" x2="7967.26" y2="4908.87">
   <stop offset="0" style="stop-opacity:1; stop-color:#4AC7EC"/>
   <stop offset="0.270588" style="stop-opacity:1; stop-color:#9ED889"/>
   <stop offset="0.388235" style="stop-opacity:1; stop-color:#C9509C"/>
   <stop offset="1" style="stop-opacity:1; stop-color:#F2EA26"/>
  </linearGradient>
  <linearGradient id="id18" gradientUnits="userSpaceOnUse" xlink:href="#id9" x1="24853.3" y1="12951.6" x2="24031.1" y2="13587.4">
  </linearGradient>
  <linearGradient id="id19" gradientUnits="userSpaceOnUse" x1="3927.61" y1="6586.71" x2="6022.69" y2="9870.63">
   <stop offset="0" style="stop-opacity:1; stop-color:#4AC7EC"/>
   <stop offset="0.270588" style="stop-opacity:1; stop-color:#9ED889"/>
   <stop offset="0.34902" style="stop-opacity:1; stop-color:#C9509C"/>
   <stop offset="1" style="stop-opacity:1; stop-color:#F2EA26"/>
  </linearGradient>
  <linearGradient id="id20" gradientUnits="userSpaceOnUse" xlink:href="#id16" x1="2364.12" y1="14834.9" x2="5587.36" y2="13571.8">
  </linearGradient>
  <linearGradient id="id21" gradientUnits="userSpaceOnUse" xlink:href="#id9" x1="22134.1" y1="13318.7" x2="19846.2" y2="15088">
  </linearGradient>
  <linearGradient id="id22" gradientUnits="userSpaceOnUse" x1="3068.65" y1="4255.54" x2="4882.83" y2="7386.68">
   <stop offset="0" style="stop-opacity:1; stop-color:#4AC7EC"/>
   <stop offset="0.270588" style="stop-opacity:1; stop-color:#A4E2F5"/>
   <stop offset="0.34902" style="stop-opacity:1; stop-color:#C9509C"/>
   <stop offset="0.74902" style="stop-opacity:1; stop-color:#FCE51F"/>
   <stop offset="1" style="stop-opacity:1; stop-color:#FEFEFE"/>
  </linearGradient>
  <linearGradient id="id23" gradientUnits="userSpaceOnUse" xlink:href="#id16" x1="3204.35" y1="17304.9" x2="6745.95" y2="15916.9">
  </linearGradient>
 </defs>
 <g id="Layer_x0020_1">
  <metadata id="CorelCorpID_0Corel-Layer"/>
  <g id="_376005760">
   <path class="fil0" d="M5425 3032c360,0 707,62 1029,174 203,-77 331,-108 374,-118 15,-4 32,-7 49,-7 1,0 289,-5 193,398 98,-32 150,-42 150,-42l0 1c12,-2 24,-4 36,-3 1,0 252,-2 178,332 101,85 196,176 286,273l1561 -582c75,-33 164,-12 216,55 60,80 45,193 -34,253l-1264 962c219,426 342,909 342,1420 0,1100 -570,2067 -1430,2621 44,196 52,399 22,599 -36,248 -131,492 -287,711 -3,4 -7,10 -12,17 -27,40 -69,69 -120,77 -98,16 -191,-50 -208,-148 -27,-165 -86,-324 -176,-468 -82,-131 -190,-250 -321,-347 -189,36 -385,55 -584,55 -286,0 -562,-39 -825,-111 -746,106 -1452,114 -1712,-1011 -73,6 -146,3 -219,-8 -133,-20 -264,-67 -384,-145 -2,-1 -5,-2 -7,-4 -42,-25 -73,-66 -84,-117 -21,-97 41,-193 138,-214 79,-18 156,-50 224,-98 22,-15 43,-32 63,-50 -40,-83 -76,-167 -108,-253 -66,87 -152,154 -248,196 -146,64 -316,72 -475,10l-1 -1c-159,-62 -279,-184 -343,-330 -64,-145 -72,-315 -9,-475 31,-79 76,-148 132,-206 58,-60 127,-107 202,-139 62,-27 72,-58 90,-118 12,-42 27,-91 51,-153 21,-54 42,-98 61,-137 30,-60 49,-99 27,-144 -36,-76 -57,-160 -61,-246 -3,-83 11,-168 42,-249 56,-143 160,-254 285,-321 82,-44 174,-70 268,-74 78,-184 189,-354 328,-501 10,-10 20,-21 31,-31 565,-789 1489,-1303 2534,-1303z"/>
   <path class="fil1" d="M7045 4484l2309 -861 -1777 1353 0 0c47,99 72,209 72,325 0,144 -48,342 -77,483 58,416 310,904 310,904 52,77 82,170 82,269 0,267 -216,483 -483,483 -266,0 -452,-399 -961,-572l0 0 0 0c-44,-15 -90,-28 -139,-40 0,1 -30,-7 -32,-8 -14,-4 -25,-7 -31,-8 -402,-122 -694,-494 -694,-935 0,-11 0,-21 1,-32 -3,31 -4,63 -4,94 0,535 331,991 800,1177l0 0 16 7c134,520 440,972 854,1289 -83,64 -170,122 -260,174 -106,-296 -299,-565 -573,-764 -7,-5 -14,-10 -21,-14 -604,-425 -1207,-342 -1729,-270 -626,87 -1111,154 -1212,-1088 -2,-18 -6,-36 -13,-51 66,-1206 1033,-2172 2239,-2235 -1,-17 -3,-37 -4,-60 -5,-157 50,-389 365,-541 514,-248 794,-301 794,-301 0,0 236,-8 -392,985 168,46 329,111 480,192l-184 135 264 -90 0 0 0 0zm-4043 2209l-415 173 -133 55c-4,41 -14,81 -29,120 -89,227 -345,339 -572,251 -227,-89 -339,-345 -250,-573 44,-114 132,-199 237,-244 189,-82 155,-160 238,-372 74,-189 161,-259 82,-424 -51,-106 -59,-233 -13,-352 89,-227 345,-339 572,-250 228,89 340,345 251,572 -16,40 -36,76 -61,108l60 132 192 419 86 34c-10,8 -20,17 -27,27 -85,99 -159,207 -218,324zm-499 -1063c78,30 166,-8 197,-86 30,-78 -8,-167 -86,-197 -78,-31 -166,8 -197,86 -30,78 8,166 86,197zm-348 1306c31,-78 -8,-166 -86,-197 -78,-31 -166,8 -197,86 -30,78 8,166 86,197 79,30 167,-8 197,-86zm4950 -1019c42,-130 5,-278 -104,-373 -77,-68 -176,-95 -270,-85 -41,130 -5,278 104,373 78,67 176,95 270,85zm777 771l0 0z"/>
   <g style="clip-path:url(#id0)">
    <g>
     <path id="1" class="fil2" d="M5625 5845c0,0 -274,1151 122,1762 396,611 961,1460 1538,1505 577,45 608,-642 509,-735 -99,-94 -1080,-987 -1107,-1063 -27,-75 -1154,-573 -1062,-1469z"/>
    </g>
   </g>
   <path class="fil3" d="M7045 4484l2309 -861 -1777 1353 0 0c47,99 72,209 72,325 0,144 -48,342 -77,483 58,416 310,904 310,904 52,77 82,170 82,269 0,267 -216,483 -483,483 -266,0 -452,-399 -961,-572l0 0 0 0c-44,-15 -90,-28 -139,-40 0,1 -30,-7 -32,-8 -14,-4 -25,-7 -31,-8 -402,-122 -694,-494 -694,-935 0,-11 0,-21 1,-32 -3,31 -4,63 -4,94 0,535 331,991 800,1177l0 0 16 7c134,520 440,972 854,1289 -83,64 -170,122 -260,174 -106,-296 -299,-565 -573,-764 -7,-5 -14,-10 -21,-14 -604,-425 -1207,-342 -1729,-270 -626,87 -1111,154 -1212,-1088 -2,-18 -6,-36 -13,-51 66,-1206 1033,-2172 2239,-2235 -1,-17 -3,-37 -4,-60 -5,-157 50,-389 365,-541 514,-248 794,-301 794,-301 0,0 236,-8 -392,985 168,46 329,111 480,192l-184 135 264 -90 0 0 0 0zm-4043 2209l-415 173 -133 55c-4,41 -14,81 -29,120 -89,227 -345,339 -572,251 -227,-89 -339,-345 -250,-573 44,-114 132,-199 237,-244 189,-82 155,-160 238,-372 74,-189 161,-259 82,-424 -51,-106 -59,-233 -13,-352 89,-227 345,-339 572,-250 228,89 340,345 251,572 -16,40 -36,76 -61,108l60 132 192 419 86 34c-10,8 -20,17 -27,27 -85,99 -159,207 -218,324zm-499 -1063c78,30 166,-8 197,-86 30,-78 -8,-167 -86,-197 -78,-31 -166,8 -197,86 -30,78 8,166 86,197zm-348 1306c31,-78 -8,-166 -86,-197 -78,-31 -166,8 -197,86 -30,78 8,166 86,197 79,30 167,-8 197,-86zm4950 -1019c42,-130 5,-278 -104,-373 -77,-68 -176,-95 -270,-85 -41,130 -5,278 104,373 78,67 176,95 270,85zm777 771l0 0z"/>
   <path class="fil4" d="M6092 9047c329,235 531,580 592,948 5,-7 11,-14 16,-21 467,-656 314,-1566 -341,-2034 -1363,-971 -2823,901 -3016,-1478 -246,280 -386,654 -360,1055 167,2637 2136,837 3109,1530z"/>
   <path class="fil5" d="M6934 3722c-44,105 -106,229 -190,374 99,-52 210,-85 329,-94 27,-2 53,-2 79,-2 120,-219 137,-314 129,-355 -6,-31 -27,-31 -27,-31 0,0 -4,1 -12,3 -33,8 -138,35 -308,105z"/>
   <path class="fil6" d="M2839 7532c-40,52 -85,99 -134,139 -99,79 -214,134 -335,160l12 8c156,100 334,139 506,124 -1,-2 -1,-4 -1,-6 -22,-128 -38,-270 -48,-425zm1067 -2597c256,-312 586,-560 962,-720 -392,-226 -880,-276 -1332,-95 -387,154 -675,449 -832,801 20,5 39,11 58,18 7,2 14,5 20,8 75,31 139,75 193,129 35,-17 71,-32 107,-47 271,-109 555,-136 824,-94zm-553 1294c57,-480 249,-917 537,-1274 -291,13 -570,114 -801,284 2,5 4,10 6,15 59,134 67,290 13,438l-35 77 195 426 85 34zm1231 -2235c114,57 214,130 299,215 217,-91 450,-152 693,-178 1,-16 3,-33 5,-49 -77,-72 -165,-134 -264,-184 -384,-193 -824,-149 -1156,76 144,12 287,52 423,120zm-1960 3012c55,123 127,239 213,342 8,-163 40,-321 94,-470l-307 128z"/>
   <path class="fil7" d="M7033 4312c8,4 15,9 22,15l345 -129c-97,-41 -205,-60 -317,-52l-15 2c-86,8 -166,31 -239,67 52,21 102,45 153,71 17,8 34,17 51,26zm792 1318c0,0 4,-91 -38,-217 0,0 29,-184 -36,-388l204 -156c0,0 227,393 -130,761z"/>
   <path class="fil0" d="M14024 3032c360,0 707,62 1029,174 203,-77 331,-108 373,-118 16,-4 33,-7 50,-7 1,0 289,-5 193,398 98,-32 150,-42 150,-42l0 1c12,-2 24,-4 36,-3 1,0 252,-2 178,332 101,85 196,176 285,273l1562 -582c74,-33 164,-12 216,55 60,80 45,193 -34,253l-1264 962c219,426 342,909 342,1420 0,1100 -570,2067 -1430,2621 44,196 52,399 22,599 -36,248 -131,492 -287,711 -3,4 -8,10 -12,17 -27,40 -69,69 -120,77 -98,16 -191,-50 -208,-148 -27,-165 -87,-324 -177,-468 -82,-131 -189,-250 -320,-347 -189,36 -385,55 -584,55 -286,0 -562,-39 -825,-111 -746,106 -1452,114 -1712,-1011 -73,6 -147,3 -219,-8 -133,-20 -264,-67 -384,-145 -2,-1 -5,-2 -7,-4 -42,-25 -73,-66 -84,-117 -21,-97 41,-193 138,-214 79,-18 156,-50 223,-98 23,-15 44,-32 64,-50 -40,-83 -76,-167 -109,-253 -65,87 -151,154 -247,196 -146,64 -316,72 -476,10l0 -1c-160,-62 -279,-184 -343,-330 -64,-145 -72,-315 -9,-475 30,-79 76,-148 132,-206 58,-60 127,-107 202,-139 62,-27 72,-58 89,-118 13,-42 28,-91 52,-153 21,-54 42,-98 61,-137 29,-60 49,-99 27,-144 -37,-76 -58,-160 -61,-246 -3,-83 10,-168 42,-249 56,-143 160,-254 285,-321 82,-44 174,-70 268,-74 78,-184 189,-354 328,-501 10,-10 20,-21 30,-31 566,-789 1490,-1303 2535,-1303z"/>
   <path class="fil1" d="M15644 4484l2308 -861 -1776 1353 0 0c46,99 72,209 72,325 0,144 -48,342 -78,483 59,416 311,904 311,904 52,77 82,170 82,269 0,267 -216,483 -483,483 -266,0 -452,-399 -961,-572l0 0 -1 0c-43,-15 -89,-28 -138,-40 0,1 -30,-7 -33,-8 -13,-4 -24,-7 -30,-8 -402,-122 -694,-494 -694,-935 0,-11 0,-21 0,-32 -2,31 -3,63 -3,94 0,535 331,991 800,1177l0 0 16 7c134,520 440,972 854,1289 -83,64 -170,122 -261,174 -105,-296 -298,-565 -572,-764 -7,-5 -14,-10 -21,-14 -604,-425 -1207,-342 -1729,-270 -626,87 -1111,154 -1212,-1088 -2,-18 -6,-36 -13,-51 66,-1206 1033,-2172 2239,-2235 -2,-17 -3,-37 -4,-60 -5,-157 49,-389 365,-541 514,-248 794,-301 794,-301 0,0 236,-8 -393,985 169,46 330,111 481,192l-184 135 264 -90 0 0 0 0zm-4043 2209l-415 173 -134 55c-3,41 -13,81 -28,120 -89,227 -345,339 -572,251 -227,-89 -339,-345 -251,-573 45,-114 133,-199 238,-244 189,-82 155,-160 238,-372 74,-189 161,-259 82,-424 -51,-106 -59,-233 -13,-352 89,-227 345,-339 572,-250 227,89 339,345 251,572 -16,40 -36,76 -61,108l60 132 192 419 85 34c-10,8 -19,17 -26,27 -86,99 -159,207 -218,324zm-499 -1063c78,30 166,-8 197,-86 30,-78 -8,-167 -86,-197 -78,-31 -166,8 -197,86 -31,78 8,166 86,197zm-348 1306c31,-78 -8,-166 -86,-197 -78,-31 -166,8 -197,86 -30,78 8,166 86,197 78,30 166,-8 197,-86zm4950 -1019c42,-130 5,-278 -104,-373 -78,-68 -176,-95 -270,-85 -42,130 -5,278 104,373 78,67 176,95 270,85zm777 771l0 0z"/>
   <g style="clip-path:url(#id1)">
    <g>
     <path id="1" class="fil2" d="M14223 5845c0,0 -273,1151 123,1762 395,611 961,1460 1538,1505 577,45 608,-642 509,-735 -99,-94 -1080,-987 -1107,-1063 -28,-75 -1154,-573 -1063,-1469z"/>
    </g>
   </g>
   <path class="fil3" d="M15644 4484l2308 -861 -1776 1353 0 0c46,99 72,209 72,325 0,144 -48,342 -78,483 59,416 311,904 311,904 52,77 82,170 82,269 0,267 -216,483 -483,483 -266,0 -452,-399 -961,-572l0 0 -1 0c-43,-15 -89,-28 -138,-40 0,1 -30,-7 -33,-8 -13,-4 -24,-7 -30,-8 -402,-122 -694,-494 -694,-935 0,-11 0,-21 0,-32 -2,31 -3,63 -3,94 0,535 331,991 800,1177l0 0 16 7c134,520 440,972 854,1289 -83,64 -170,122 -261,174 -105,-296 -298,-565 -572,-764 -7,-5 -14,-10 -21,-14 -604,-425 -1207,-342 -1729,-270 -626,87 -1111,154 -1212,-1088 -2,-18 -6,-36 -13,-51 66,-1206 1033,-2172 2239,-2235 -2,-17 -3,-37 -4,-60 -5,-157 49,-389 365,-541 514,-248 794,-301 794,-301 0,0 236,-8 -393,985 169,46 330,111 481,192l-184 135 264 -90 0 0 0 0zm-4043 2209l-415 173 -134 55c-3,41 -13,81 -28,120 -89,227 -345,339 -572,251 -227,-89 -339,-345 -251,-573 45,-114 133,-199 238,-244 189,-82 155,-160 238,-372 74,-189 161,-259 82,-424 -51,-106 -59,-233 -13,-352 89,-227 345,-339 572,-250 227,89 339,345 251,572 -16,40 -36,76 -61,108l60 132 192 419 85 34c-10,8 -19,17 -26,27 -86,99 -159,207 -218,324zm-499 -1063c78,30 166,-8 197,-86 30,-78 -8,-167 -86,-197 -78,-31 -166,8 -197,86 -31,78 8,166 86,197zm-348 1306c31,-78 -8,-166 -86,-197 -78,-31 -166,8 -197,86 -30,78 8,166 86,197 78,30 166,-8 197,-86zm4950 -1019c42,-130 5,-278 -104,-373 -78,-68 -176,-95 -270,-85 -42,130 -5,278 104,373 78,67 176,95 270,85zm777 771l0 0z"/>
   <path class="fil8" d="M14691 9047c328,235 531,580 592,948 5,-7 10,-14 16,-21 467,-656 314,-1566 -342,-2034 -1362,-971 -2822,901 -3016,-1478 -246,280 -385,654 -359,1055 167,2637 2136,837 3109,1530z"/>
   <path class="fil5" d="M15533 3722c-45,105 -107,229 -190,374 99,-52 210,-85 329,-94 27,-2 53,-2 79,-2 120,-219 137,-314 129,-355 -6,-31 -27,-31 -27,-31 0,0 -4,1 -12,3 -33,8 -138,35 -308,105z"/>
   <path class="fil9" d="M11438 7532c-40,52 -85,99 -134,139 -99,79 -214,134 -335,160l12 8c156,100 334,139 506,124 -1,-2 -1,-4 -1,-6 -22,-128 -38,-270 -48,-425zm1067 -2597c256,-312 586,-560 962,-720 -392,-226 -880,-276 -1333,-95 -386,154 -675,449 -831,801 20,5 39,11 58,18 7,2 13,5 20,8 74,31 139,75 193,129 35,-17 70,-32 107,-47 271,-109 555,-136 824,-94zm-553 1294c57,-480 249,-917 537,-1274 -291,13 -570,114 -802,284 3,5 5,10 7,15 59,134 67,290 13,438l-35 77 195 426 85 34zm1231 -2235c113,57 213,130 299,215 217,-91 450,-152 693,-178 1,-16 3,-33 5,-49 -77,-72 -166,-134 -265,-184 -383,-193 -823,-149 -1155,76 144,12 287,52 423,120zm-1960 3012c55,123 126,239 213,342 8,-163 40,-321 94,-470l-307 128z"/>
   <path class="fil10" d="M15632 4312c8,4 15,9 22,15l345 -129c-97,-41 -205,-60 -317,-52l-16 2c-85,8 -165,31 -238,67 52,21 102,45 153,71 17,8 34,17 51,26zm792 1318c0,0 4,-91 -38,-217 0,0 29,-184 -36,-388l204 -156c0,0 227,393 -130,761z"/>
   <path class="fil0" d="M22439 3032c361,0 707,62 1029,174 204,-77 332,-108 374,-118 16,-4 32,-7 49,-7 1,0 289,-5 194,398 97,-32 149,-42 149,-42l1 1c11,-2 23,-4 35,-3 1,0 252,-2 178,332 101,85 197,176 286,273l1562 -582c74,-33 164,-12 215,55 61,80 45,193 -34,253l-1263 962c218,426 341,909 341,1420 0,1100 -569,2067 -1430,2621 44,196 52,399 23,599 -37,248 -131,492 -287,711 -3,4 -8,10 -13,17 -27,40 -69,69 -120,77 -98,16 -191,-50 -207,-148 -28,-165 -87,-324 -177,-468 -82,-131 -189,-250 -320,-347 -190,36 -385,55 -585,55 -285,0 -562,-39 -824,-111 -747,106 -1453,114 -1712,-1011 -73,6 -147,3 -220,-8 -132,-20 -263,-67 -384,-145 -2,-1 -4,-2 -7,-4 -41,-25 -73,-66 -84,-117 -21,-97 41,-193 138,-214 80,-18 156,-50 224,-98 22,-15 43,-32 64,-50 -40,-83 -76,-167 -109,-253 -65,87 -151,154 -248,196 -146,64 -315,72 -475,10l0 -1c-160,-62 -279,-184 -343,-330 -64,-145 -72,-315 -10,-475 31,-79 77,-148 133,-206 57,-60 126,-107 202,-139 62,-27 71,-58 89,-118 13,-42 27,-91 52,-153 20,-54 42,-98 61,-137 29,-60 48,-99 27,-144 -37,-76 -58,-160 -61,-246 -3,-83 10,-168 42,-249 56,-143 159,-254 285,-321 82,-44 173,-70 267,-74 79,-184 190,-354 328,-501 10,-10 21,-21 31,-31 565,-789 1490,-1303 2534,-1303z"/>
   <path class="fil1" d="M24060 4484l2308 -861 -1776 1353 0 0c46,99 72,209 72,325 0,144 -48,342 -78,483 59,416 311,904 311,904 51,77 81,170 81,269 0,267 -216,483 -482,483 -267,0 -453,-399 -962,-572l0 0 0 0c-44,-15 -90,-28 -138,-40 0,1 -30,-7 -33,-8 -14,-4 -24,-7 -31,-8 -401,-122 -693,-494 -693,-935 0,-11 0,-21 0,-32 -2,31 -3,63 -3,94 0,535 331,991 799,1177l0 0 17 7c134,520 440,972 854,1289 -83,64 -170,122 -261,174 -106,-296 -299,-565 -573,-764 -6,-5 -13,-10 -21,-14 -604,-425 -1207,-342 -1729,-270 -625,87 -1111,154 -1212,-1088 -1,-18 -6,-36 -13,-51 67,-1206 1033,-2172 2240,-2235 -2,-17 -3,-37 -4,-60 -5,-157 49,-389 364,-541 514,-248 794,-301 794,-301 0,0 237,-8 -392,985 169,46 330,111 481,192l-185 135 265 -90 0 0 0 0zm-4044 2209l-415 173 -133 55c-4,41 -13,81 -29,120 -88,227 -345,339 -572,251 -227,-89 -339,-345 -250,-573 45,-114 132,-199 237,-244 189,-82 155,-160 238,-372 74,-189 162,-259 83,-424 -51,-106 -60,-233 -13,-352 89,-227 345,-339 572,-250 227,89 339,345 250,572 -15,40 -36,76 -61,108l61 132 192 419 85 34c-10,8 -19,17 -27,27 -85,99 -158,207 -218,324zm-498 -1063c78,30 166,-8 196,-86 31,-78 -8,-167 -86,-197 -78,-31 -166,8 -196,86 -31,78 8,166 86,197zm-348 1306c30,-78 -8,-166 -87,-197 -78,-31 -166,8 -196,86 -31,78 8,166 86,197 78,30 166,-8 197,-86zm4950 -1019c41,-130 5,-278 -105,-373 -77,-68 -175,-95 -270,-85 -41,130 -5,278 105,373 77,67 175,95 270,85zm777 771l0 0z"/>
   <g style="clip-path:url(#id2)">
    <g>
     <path id="1" class="fil2" d="M22639 5845c0,0 -274,1151 122,1762 396,611 962,1460 1539,1505 576,45 608,-642 509,-735 -100,-94 -1080,-987 -1108,-1063 -27,-75 -1154,-573 -1062,-1469z"/>
    </g>
   </g>
   <path class="fil3" d="M24060 4484l2308 -861 -1776 1353 0 0c46,99 72,209 72,325 0,144 -48,342 -78,483 59,416 311,904 311,904 51,77 81,170 81,269 0,267 -216,483 -482,483 -267,0 -453,-399 -962,-572l0 0 0 0c-44,-15 -90,-28 -138,-40 0,1 -30,-7 -33,-8 -14,-4 -24,-7 -31,-8 -401,-122 -693,-494 -693,-935 0,-11 0,-21 0,-32 -2,31 -3,63 -3,94 0,535 331,991 799,1177l0 0 17 7c134,520 440,972 854,1289 -83,64 -170,122 -261,174 -106,-296 -299,-565 -573,-764 -6,-5 -13,-10 -21,-14 -604,-425 -1207,-342 -1729,-270 -625,87 -1111,154 -1212,-1088 -1,-18 -6,-36 -13,-51 67,-1206 1033,-2172 2240,-2235 -2,-17 -3,-37 -4,-60 -5,-157 49,-389 364,-541 514,-248 794,-301 794,-301 0,0 237,-8 -392,985 169,46 330,111 481,192l-185 135 265 -90 0 0 0 0zm-4044 2209l-415 173 -133 55c-4,41 -13,81 -29,120 -88,227 -345,339 -572,251 -227,-89 -339,-345 -250,-573 45,-114 132,-199 237,-244 189,-82 155,-160 238,-372 74,-189 162,-259 83,-424 -51,-106 -60,-233 -13,-352 89,-227 345,-339 572,-250 227,89 339,345 250,572 -15,40 -36,76 -61,108l61 132 192 419 85 34c-10,8 -19,17 -27,27 -85,99 -158,207 -218,324zm-498 -1063c78,30 166,-8 196,-86 31,-78 -8,-167 -86,-197 -78,-31 -166,8 -196,86 -31,78 8,166 86,197zm-348 1306c30,-78 -8,-166 -87,-197 -78,-31 -166,8 -196,86 -31,78 8,166 86,197 78,30 166,-8 197,-86zm4950 -1019c41,-130 5,-278 -105,-373 -77,-68 -175,-95 -270,-85 -41,130 -5,278 105,373 77,67 175,95 270,85zm777 771l0 0z"/>
   <path class="fil11" d="M23107 9047c328,235 530,580 592,948 5,-7 10,-14 15,-21 468,-656 315,-1566 -341,-2034 -1362,-971 -2823,901 -3016,-1478 -246,280 -385,654 -360,1055 168,2637 2136,837 3110,1530z"/>
   <path class="fil5" d="M23949 3722c-45,105 -107,229 -191,374 99,-52 211,-85 330,-94 26,-2 53,-2 79,-2 119,-219 136,-314 129,-355 -7,-31 -28,-31 -28,-31 0,0 -4,1 -11,3 -34,8 -139,35 -308,105z"/>
   <path class="fil12" d="M19854 7532c-40,52 -85,99 -135,139 -98,79 -213,134 -334,160l12 8c156,100 334,139 505,124 0,-2 0,-4 -1,-6 -21,-128 -37,-270 -47,-425zm1067 -2597c256,-312 585,-560 962,-720 -392,-226 -880,-276 -1333,-95 -386,154 -675,449 -831,801 19,5 38,11 57,18 7,2 14,5 20,8 75,31 140,75 193,129 35,-17 71,-32 108,-47 271,-109 554,-136 824,-94zm-554 1294c58,-480 250,-917 537,-1274 -291,13 -570,114 -801,284 2,5 4,10 6,15 59,134 68,290 13,438l-35 77 195 426 85 34zm1232 -2235c113,57 213,130 298,215 218,-91 450,-152 694,-178 1,-16 2,-33 5,-49 -77,-72 -166,-134 -265,-184 -383,-193 -824,-149 -1155,76 143,12 286,52 423,120zm-1961 3012c55,123 127,239 214,342 7,-163 40,-321 94,-470l-308 128z"/>
   <path class="fil13" d="M24047 4312c8,4 16,9 22,15l345 -129c-96,-41 -204,-60 -316,-52l-16 2c-85,8 -166,31 -238,67 51,21 102,45 152,71 17,8 34,17 51,26zm792 1318c0,0 5,-91 -38,-217 0,0 29,-184 -36,-388l205 -156c0,0 227,393 -131,761z"/>
   <path class="fil0" d="M5425 11414c360,0 707,62 1029,175 203,-77 331,-109 374,-119 15,-4 32,-6 49,-6 1,0 289,-5 193,398 98,-32 150,-42 150,-42l0 0c12,-2 24,-3 36,-3 1,0 252,-2 178,332 101,85 196,177 286,274l1561 -583c75,-33 164,-12 216,56 60,79 45,192 -34,252l-1264 963c219,425 342,908 342,1420 0,1099 -570,2066 -1430,2621 44,195 52,398 22,598 -36,248 -131,492 -287,711 -3,4 -7,10 -12,17 -27,40 -69,69 -120,77 -98,17 -191,-50 -208,-148 -27,-164 -86,-324 -176,-468 -82,-131 -190,-250 -321,-347 -189,36 -385,55 -584,55 -286,0 -562,-39 -825,-110 -746,105 -1452,113 -1712,-1011 -73,5 -146,3 -219,-8 -133,-20 -264,-68 -384,-145 -2,-2 -5,-3 -7,-5 -42,-25 -73,-66 -84,-117 -21,-97 41,-193 138,-214 79,-17 156,-50 224,-97 22,-16 43,-33 63,-51 -40,-82 -76,-167 -108,-252 -66,86 -152,153 -248,195 -146,64 -316,72 -475,10l-1 0c-159,-63 -279,-184 -343,-330 -64,-146 -72,-316 -9,-476 31,-79 76,-148 132,-206 58,-60 127,-107 202,-139 62,-27 72,-58 90,-118 12,-42 27,-91 51,-153 21,-53 42,-97 61,-137 30,-60 49,-99 27,-144 -36,-76 -57,-160 -61,-246 -3,-83 11,-167 42,-249 56,-143 160,-254 285,-321 82,-44 174,-70 268,-74 78,-183 189,-353 328,-500 10,-11 20,-22 31,-32 565,-789 1489,-1303 2534,-1303z"/>
   <path class="fil1" d="M7045 12866l2309 -861 -1777 1353 0 0c47,99 72,209 72,326 0,143 -48,341 -77,483 58,415 310,903 310,903 52,77 82,170 82,269 0,267 -216,483 -483,483 -266,0 -452,-399 -961,-572l0 0 0 0c-44,-15 -90,-28 -139,-39 0,0 -30,-8 -32,-9 -14,-3 -25,-6 -31,-8 -402,-121 -694,-494 -694,-935 0,-10 0,-21 1,-32 -3,31 -4,63 -4,95 0,534 331,991 800,1176l0 0 16 8c134,520 440,971 854,1288 -83,64 -170,122 -260,174 -106,-296 -299,-565 -573,-763 -7,-6 -14,-11 -21,-15 -604,-425 -1207,-342 -1729,-269 -626,86 -1111,153 -1212,-1089 -2,-18 -6,-35 -13,-51 66,-1206 1033,-2171 2239,-2235 -1,-17 -3,-37 -4,-60 -5,-157 50,-388 365,-541 514,-248 794,-301 794,-301 0,0 236,-8 -392,985 168,47 329,112 480,192l-184 135 264 -90 0 0 0 0zm-4043 2209l-415 173 -133 56c-4,40 -14,80 -29,120 -89,227 -345,339 -572,250 -227,-89 -339,-345 -250,-572 44,-115 132,-200 237,-245 189,-81 155,-160 238,-372 74,-189 161,-259 82,-423 -51,-107 -59,-234 -13,-352 89,-227 345,-340 572,-251 228,89 340,345 251,572 -16,40 -36,76 -61,108l60 132 192 419 86 34c-10,8 -20,17 -27,27 -85,99 -159,207 -218,324zm-499 -1063c78,30 166,-8 197,-86 30,-78 -8,-166 -86,-197 -78,-30 -166,8 -197,86 -30,78 8,166 86,197zm-348 1306c31,-78 -8,-166 -86,-197 -78,-30 -166,8 -197,86 -30,78 8,166 86,197 79,31 167,-8 197,-86zm4950 -1019c42,-130 5,-278 -104,-373 -77,-67 -176,-95 -270,-85 -41,130 -5,278 104,373 78,68 176,95 270,85zm777 771l0 0z"/>
   <g style="clip-path:url(#id3)">
    <g>
     <path id="1" class="fil2" d="M5625 14227c0,0 -274,1152 122,1763 396,610 961,1459 1538,1504 577,45 608,-642 509,-735 -99,-94 -1080,-987 -1107,-1062 -27,-76 -1154,-573 -1062,-1470z"/>
    </g>
   </g>
   <path class="fil3" d="M7045 12866l2309 -861 -1777 1353 0 0c47,99 72,209 72,326 0,143 -48,341 -77,483 58,415 310,903 310,903 52,77 82,170 82,269 0,267 -216,483 -483,483 -266,0 -452,-399 -961,-572l0 0 0 0c-44,-15 -90,-28 -139,-39 0,0 -30,-8 -32,-9 -14,-3 -25,-6 -31,-8 -402,-121 -694,-494 -694,-935 0,-10 0,-21 1,-32 -3,31 -4,63 -4,95 0,534 331,991 800,1176l0 0 16 8c134,520 440,971 854,1288 -83,64 -170,122 -260,174 -106,-296 -299,-565 -573,-763 -7,-6 -14,-11 -21,-15 -604,-425 -1207,-342 -1729,-269 -626,86 -1111,153 -1212,-1089 -2,-18 -6,-35 -13,-51 66,-1206 1033,-2171 2239,-2235 -1,-17 -3,-37 -4,-60 -5,-157 50,-388 365,-541 514,-248 794,-301 794,-301 0,0 236,-8 -392,985 168,47 329,112 480,192l-184 135 264 -90 0 0 0 0zm-4043 2209l-415 173 -133 56c-4,40 -14,80 -29,120 -89,227 -345,339 -572,250 -227,-89 -339,-345 -250,-572 44,-115 132,-200 237,-245 189,-81 155,-160 238,-372 74,-189 161,-259 82,-423 -51,-107 -59,-234 -13,-352 89,-227 345,-340 572,-251 228,89 340,345 251,572 -16,40 -36,76 -61,108l60 132 192 419 86 34c-10,8 -20,17 -27,27 -85,99 -159,207 -218,324zm-499 -1063c78,30 166,-8 197,-86 30,-78 -8,-166 -86,-197 -78,-30 -166,8 -197,86 -30,78 8,166 86,197zm-348 1306c31,-78 -8,-166 -86,-197 -78,-30 -166,8 -197,86 -30,78 8,166 86,197 79,31 167,-8 197,-86zm4950 -1019c42,-130 5,-278 -104,-373 -77,-67 -176,-95 -270,-85 -41,130 -5,278 104,373 78,68 176,95 270,85zm777 771l0 0z"/>
   <path class="fil14" d="M6092 17430c329,234 531,579 592,948 5,-7 11,-14 16,-22 467,-655 314,-1566 -341,-2034 -1363,-970 -2823,901 -3016,-1478 -246,280 -386,654 -360,1055 167,2637 2136,837 3109,1531z"/>
   <path class="fil5" d="M6934 12104c-44,105 -106,229 -190,374 99,-52 210,-85 329,-93 27,-2 53,-3 79,-2 120,-220 137,-315 129,-355 -6,-32 -27,-31 -27,-31 0,0 -4,0 -12,2 -33,8 -138,35 -308,105z"/>
   <path class="fil15" d="M2839 15914c-40,52 -85,99 -134,139 -99,80 -214,134 -335,160l12 8c156,100 334,139 506,124 -1,-2 -1,-4 -1,-6 -22,-128 -38,-269 -48,-425zm1067 -2597c256,-311 586,-560 962,-720 -392,-225 -880,-276 -1332,-95 -387,155 -675,449 -832,801 20,5 39,11 58,18 7,2 14,5 20,8 75,31 139,75 193,130 35,-17 71,-33 107,-48 271,-108 555,-136 824,-94zm-553 1294c57,-479 249,-917 537,-1274 -291,13 -570,114 -801,285 2,4 4,9 6,14 59,134 67,290 13,438l-35 77 195 426 85 34zm1231 -2234c114,57 214,129 299,214 217,-90 450,-151 693,-178 1,-16 3,-32 5,-49 -77,-71 -165,-134 -264,-183 -384,-193 -824,-150 -1156,75 144,13 287,52 423,121zm-1960 3012c55,123 127,238 213,342 8,-164 40,-322 94,-471l-307 129z"/>
   <path class="fil16" d="M7033 12694c8,5 15,10 22,15l345 -129c-97,-41 -205,-60 -317,-52l-15 2c-86,8 -166,31 -239,67 52,22 102,45 153,71 17,9 34,17 51,26zm792 1318c0,0 4,-91 -38,-216 0,0 29,-184 -36,-389l204 -156c0,0 227,393 -130,761z"/>
   <path class="fil0" d="M14024 11414c360,0 707,62 1029,175 203,-77 331,-109 373,-119 16,-4 33,-6 50,-6 1,0 289,-5 193,398 98,-32 150,-42 150,-42l0 0c12,-2 24,-3 36,-3 1,0 252,-2 178,332 101,85 196,177 285,274l1562 -583c74,-33 164,-12 216,56 60,79 45,192 -34,252l-1264 963c219,425 342,908 342,1420 0,1099 -570,2066 -1430,2621 44,195 52,398 22,598 -36,248 -131,492 -287,711 -3,4 -8,10 -12,17 -27,40 -69,69 -120,77 -98,17 -191,-50 -208,-148 -27,-164 -87,-324 -177,-468 -82,-131 -189,-250 -320,-347 -189,36 -385,55 -584,55 -286,0 -562,-39 -825,-110 -746,105 -1452,113 -1712,-1011 -73,5 -147,3 -219,-8 -133,-20 -264,-68 -384,-145 -2,-2 -5,-3 -7,-5 -42,-25 -73,-66 -84,-117 -21,-97 41,-193 138,-214 79,-17 156,-50 223,-97 23,-16 44,-33 64,-51 -40,-82 -76,-167 -109,-252 -65,86 -151,153 -247,195 -146,64 -316,72 -476,10l0 0c-160,-63 -279,-184 -343,-330 -64,-146 -72,-316 -9,-476 30,-79 76,-148 132,-206 58,-60 127,-107 202,-139 62,-27 72,-58 89,-118 13,-42 28,-91 52,-153 21,-53 42,-97 61,-137 29,-60 49,-99 27,-144 -37,-76 -58,-160 -61,-246 -3,-83 10,-167 42,-249 56,-143 160,-254 285,-321 82,-44 174,-70 268,-74 78,-183 189,-353 328,-500 10,-11 20,-22 30,-32 566,-789 1490,-1303 2535,-1303z"/>
   <path class="fil1" d="M15644 12866l2308 -861 -1776 1353 0 0c46,99 72,209 72,326 0,143 -48,341 -78,483 59,415 311,903 311,903 52,77 82,170 82,269 0,267 -216,483 -483,483 -266,0 -452,-399 -961,-572l0 0 -1 0c-43,-15 -89,-28 -138,-39 0,0 -30,-8 -33,-9 -13,-3 -24,-6 -30,-8 -402,-121 -694,-494 -694,-935 0,-10 0,-21 0,-32 -2,31 -3,63 -3,95 0,534 331,991 800,1176l0 0 16 8c134,520 440,971 854,1288 -83,64 -170,122 -261,174 -105,-296 -298,-565 -572,-763 -7,-6 -14,-11 -21,-15 -604,-425 -1207,-342 -1729,-269 -626,86 -1111,153 -1212,-1089 -2,-18 -6,-35 -13,-51 66,-1206 1033,-2171 2239,-2235 -2,-17 -3,-37 -4,-60 -5,-157 49,-388 365,-541 514,-248 794,-301 794,-301 0,0 236,-8 -393,985 169,47 330,112 481,192l-184 135 264 -90 0 0 0 0zm-4043 2209l-415 173 -134 56c-3,40 -13,80 -28,120 -89,227 -345,339 -572,250 -227,-89 -339,-345 -251,-572 45,-115 133,-200 238,-245 189,-81 155,-160 238,-372 74,-189 161,-259 82,-423 -51,-107 -59,-234 -13,-352 89,-227 345,-340 572,-251 227,89 339,345 251,572 -16,40 -36,76 -61,108l60 132 192 419 85 34c-10,8 -19,17 -26,27 -86,99 -159,207 -218,324zm-499 -1063c78,30 166,-8 197,-86 30,-78 -8,-166 -86,-197 -78,-30 -166,8 -197,86 -31,78 8,166 86,197zm-348 1306c31,-78 -8,-166 -86,-197 -78,-30 -166,8 -197,86 -30,78 8,166 86,197 78,31 166,-8 197,-86zm4950 -1019c42,-130 5,-278 -104,-373 -78,-67 -176,-95 -270,-85 -42,130 -5,278 104,373 78,68 176,95 270,85zm777 771l0 0z"/>
   <g style="clip-path:url(#id4)">
    <g>
     <path id="1" class="fil2" d="M14223 14227c0,0 -273,1152 123,1763 395,610 961,1459 1538,1504 577,45 608,-642 509,-735 -99,-94 -1080,-987 -1107,-1062 -28,-76 -1154,-573 -1063,-1470z"/>
    </g>
   </g>
   <path class="fil3" d="M15644 12866l2308 -861 -1776 1353 0 0c46,99 72,209 72,326 0,143 -48,341 -78,483 59,415 311,903 311,903 52,77 82,170 82,269 0,267 -216,483 -483,483 -266,0 -452,-399 -961,-572l0 0 -1 0c-43,-15 -89,-28 -138,-39 0,0 -30,-8 -33,-9 -13,-3 -24,-6 -30,-8 -402,-121 -694,-494 -694,-935 0,-10 0,-21 0,-32 -2,31 -3,63 -3,95 0,534 331,991 800,1176l0 0 16 8c134,520 440,971 854,1288 -83,64 -170,122 -261,174 -105,-296 -298,-565 -572,-763 -7,-6 -14,-11 -21,-15 -604,-425 -1207,-342 -1729,-269 -626,86 -1111,153 -1212,-1089 -2,-18 -6,-35 -13,-51 66,-1206 1033,-2171 2239,-2235 -2,-17 -3,-37 -4,-60 -5,-157 49,-388 365,-541 514,-248 794,-301 794,-301 0,0 236,-8 -393,985 169,47 330,112 481,192l-184 135 264 -90 0 0 0 0zm-4043 2209l-415 173 -134 56c-3,40 -13,80 -28,120 -89,227 -345,339 -572,250 -227,-89 -339,-345 -251,-572 45,-115 133,-200 238,-245 189,-81 155,-160 238,-372 74,-189 161,-259 82,-423 -51,-107 -59,-234 -13,-352 89,-227 345,-340 572,-251 227,89 339,345 251,572 -16,40 -36,76 -61,108l60 132 192 419 85 34c-10,8 -19,17 -26,27 -86,99 -159,207 -218,324zm-499 -1063c78,30 166,-8 197,-86 30,-78 -8,-166 -86,-197 -78,-30 -166,8 -197,86 -31,78 8,166 86,197zm-348 1306c31,-78 -8,-166 -86,-197 -78,-30 -166,8 -197,86 -30,78 8,166 86,197 78,31 166,-8 197,-86zm4950 -1019c42,-130 5,-278 -104,-373 -78,-67 -176,-95 -270,-85 -42,130 -5,278 104,373 78,68 176,95 270,85zm777 771l0 0z"/>
   <path class="fil17" d="M14691 17430c328,234 531,579 592,948 5,-7 10,-14 16,-22 467,-655 314,-1566 -342,-2034 -1362,-970 -2822,901 -3016,-1478 -246,280 -385,654 -359,1055 167,2637 2136,837 3109,1531z"/>
   <path class="fil5" d="M15533 12104c-45,105 -107,229 -190,374 99,-52 210,-85 329,-93 27,-2 53,-3 79,-2 120,-220 137,-315 129,-355 -6,-32 -27,-31 -27,-31 0,0 -4,0 -12,2 -33,8 -138,35 -308,105z"/>
   <path class="fil18" d="M11438 15914c-40,52 -85,99 -134,139 -99,80 -214,134 -335,160l12 8c156,100 334,139 506,124 -1,-2 -1,-4 -1,-6 -22,-128 -38,-269 -48,-425zm1067 -2597c256,-311 586,-560 962,-720 -392,-225 -880,-276 -1333,-95 -386,155 -675,449 -831,801 20,5 39,11 58,18 7,2 13,5 20,8 74,31 139,75 193,130 35,-17 70,-33 107,-48 271,-108 555,-136 824,-94zm-553 1294c57,-479 249,-917 537,-1274 -291,13 -570,114 -802,285 3,4 5,9 7,14 59,134 67,290 13,438l-35 77 195 426 85 34zm1231 -2234c113,57 213,129 299,214 217,-90 450,-151 693,-178 1,-16 3,-32 5,-49 -77,-71 -166,-134 -265,-183 -383,-193 -823,-150 -1155,75 144,13 287,52 423,121zm-1960 3012c55,123 126,238 213,342 8,-164 40,-322 94,-471l-307 129z"/>
   <path class="fil19" d="M15632 12694c8,5 15,10 22,15l345 -129c-97,-41 -205,-60 -317,-52l-16 2c-85,8 -165,31 -238,67 52,22 102,45 153,71 17,9 34,17 51,26zm792 1318c0,0 4,-91 -38,-216 0,0 29,-184 -36,-389l204 -156c0,0 227,393 -130,761z"/>
   <path class="fil0" d="M22439 11414c361,0 707,62 1029,175 204,-77 332,-109 374,-119 16,-4 32,-6 49,-6 1,0 289,-5 194,398 97,-32 149,-42 149,-42l1 0c11,-2 23,-3 35,-3 1,0 252,-2 178,332 101,85 197,177 286,274l1562 -583c74,-33 164,-12 215,56 61,79 45,192 -34,252l-1263 963c218,425 341,908 341,1420 0,1099 -569,2066 -1430,2621 44,195 52,398 23,598 -37,248 -131,492 -287,711 -3,4 -8,10 -13,17 -27,40 -69,69 -120,77 -98,17 -191,-50 -207,-148 -28,-164 -87,-324 -177,-468 -82,-131 -189,-250 -320,-347 -190,36 -385,55 -585,55 -285,0 -562,-39 -824,-110 -747,105 -1453,113 -1712,-1011 -73,5 -147,3 -220,-8 -132,-20 -263,-68 -384,-145 -2,-2 -4,-3 -7,-5 -41,-25 -73,-66 -84,-117 -21,-97 41,-193 138,-214 80,-17 156,-50 224,-97 22,-16 43,-33 64,-51 -40,-82 -76,-167 -109,-252 -65,86 -151,153 -248,195 -146,64 -315,72 -475,10l0 0c-160,-63 -279,-184 -343,-330 -64,-146 -72,-316 -10,-476 31,-79 77,-148 133,-206 57,-60 126,-107 202,-139 62,-27 71,-58 89,-118 13,-42 27,-91 52,-153 20,-53 42,-97 61,-137 29,-60 48,-99 27,-144 -37,-76 -58,-160 -61,-246 -3,-83 10,-167 42,-249 56,-143 159,-254 285,-321 82,-44 173,-70 267,-74 79,-183 190,-353 328,-500 10,-11 21,-22 31,-32 565,-789 1490,-1303 2534,-1303z"/>
   <path class="fil1" d="M24060 12866l2308 -861 -1776 1353 0 0c46,99 72,209 72,326 0,143 -48,341 -78,483 59,415 311,903 311,903 51,77 81,170 81,269 0,267 -216,483 -482,483 -267,0 -453,-399 -962,-572l0 0 0 0c-44,-15 -90,-28 -138,-39 0,0 -30,-8 -33,-9 -14,-3 -24,-6 -31,-8 -401,-121 -693,-494 -693,-935 0,-10 0,-21 0,-32 -2,31 -3,63 -3,95 0,534 331,991 799,1176l0 0 17 8c134,520 440,971 854,1288 -83,64 -170,122 -261,174 -106,-296 -299,-565 -573,-763 -6,-6 -13,-11 -21,-15 -604,-425 -1207,-342 -1729,-269 -625,86 -1111,153 -1212,-1089 -1,-18 -6,-35 -13,-51 67,-1206 1033,-2171 2240,-2235 -2,-17 -3,-37 -4,-60 -5,-157 49,-388 364,-541 514,-248 794,-301 794,-301 0,0 237,-8 -392,985 169,47 330,112 481,192l-185 135 265 -90 0 0 0 0zm-4044 2209l-415 173 -133 56c-4,40 -13,80 -29,120 -88,227 -345,339 -572,250 -227,-89 -339,-345 -250,-572 45,-115 132,-200 237,-245 189,-81 155,-160 238,-372 74,-189 162,-259 83,-423 -51,-107 -60,-234 -13,-352 89,-227 345,-340 572,-251 227,89 339,345 250,572 -15,40 -36,76 -61,108l61 132 192 419 85 34c-10,8 -19,17 -27,27 -85,99 -158,207 -218,324zm-498 -1063c78,30 166,-8 196,-86 31,-78 -8,-166 -86,-197 -78,-30 -166,8 -196,86 -31,78 8,166 86,197zm-348 1306c30,-78 -8,-166 -87,-197 -78,-30 -166,8 -196,86 -31,78 8,166 86,197 78,31 166,-8 197,-86zm4950 -1019c41,-130 5,-278 -105,-373 -77,-67 -175,-95 -270,-85 -41,130 -5,278 105,373 77,68 175,95 270,85zm777 771l0 0z"/>
   <g style="clip-path:url(#id5)">
    <g>
     <path id="1" class="fil2" d="M22639 14227c0,0 -274,1152 122,1763 396,610 962,1459 1539,1504 576,45 608,-642 509,-735 -100,-94 -1080,-987 -1108,-1062 -27,-76 -1154,-573 -1062,-1470z"/>
    </g>
   </g>
   <path class="fil3" d="M24060 12866l2308 -861 -1776 1353 0 0c46,99 72,209 72,326 0,143 -48,341 -78,483 59,415 311,903 311,903 51,77 81,170 81,269 0,267 -216,483 -482,483 -267,0 -453,-399 -962,-572l0 0 0 0c-44,-15 -90,-28 -138,-39 0,0 -30,-8 -33,-9 -14,-3 -24,-6 -31,-8 -401,-121 -693,-494 -693,-935 0,-10 0,-21 0,-32 -2,31 -3,63 -3,95 0,534 331,991 799,1176l0 0 17 8c134,520 440,971 854,1288 -83,64 -170,122 -261,174 -106,-296 -299,-565 -573,-763 -6,-6 -13,-11 -21,-15 -604,-425 -1207,-342 -1729,-269 -625,86 -1111,153 -1212,-1089 -1,-18 -6,-35 -13,-51 67,-1206 1033,-2171 2240,-2235 -2,-17 -3,-37 -4,-60 -5,-157 49,-388 364,-541 514,-248 794,-301 794,-301 0,0 237,-8 -392,985 169,47 330,112 481,192l-185 135 265 -90 0 0 0 0zm-4044 2209l-415 173 -133 56c-4,40 -13,80 -29,120 -88,227 -345,339 -572,250 -227,-89 -339,-345 -250,-572 45,-115 132,-200 237,-245 189,-81 155,-160 238,-372 74,-189 162,-259 83,-423 -51,-107 -60,-234 -13,-352 89,-227 345,-340 572,-251 227,89 339,345 250,572 -15,40 -36,76 -61,108l61 132 192 419 85 34c-10,8 -19,17 -27,27 -85,99 -158,207 -218,324zm-498 -1063c78,30 166,-8 196,-86 31,-78 -8,-166 -86,-197 -78,-30 -166,8 -196,86 -31,78 8,166 86,197zm-348 1306c30,-78 -8,-166 -87,-197 -78,-30 -166,8 -196,86 -31,78 8,166 86,197 78,31 166,-8 197,-86zm4950 -1019c41,-130 5,-278 -105,-373 -77,-67 -175,-95 -270,-85 -41,130 -5,278 105,373 77,68 175,95 270,85zm777 771l0 0z"/>
   <path class="fil20" d="M23107 17430c328,234 530,579 592,948 5,-7 10,-14 15,-22 468,-655 315,-1566 -341,-2034 -1362,-970 -2823,901 -3016,-1478 -246,280 -385,654 -360,1055 168,2637 2136,837 3110,1531z"/>
   <path class="fil5" d="M23949 12104c-45,105 -107,229 -191,374 99,-52 211,-85 330,-93 26,-2 53,-3 79,-2 119,-220 136,-315 129,-355 -7,-32 -28,-31 -28,-31 0,0 -4,0 -11,2 -34,8 -139,35 -308,105z"/>
   <path class="fil21" d="M19854 15914c-40,52 -85,99 -135,139 -98,80 -213,134 -334,160l12 8c156,100 334,139 505,124 0,-2 0,-4 -1,-6 -21,-128 -37,-269 -47,-425zm1067 -2597c256,-311 585,-560 962,-720 -392,-225 -880,-276 -1333,-95 -386,155 -675,449 -831,801 19,5 38,11 57,18 7,2 14,5 20,8 75,31 140,75 193,130 35,-17 71,-33 108,-48 271,-108 554,-136 824,-94zm-554 1294c58,-479 250,-917 537,-1274 -291,13 -570,114 -801,285 2,4 4,9 6,14 59,134 68,290 13,438l-35 77 195 426 85 34zm1232 -2234c113,57 213,129 298,214 218,-90 450,-151 694,-178 1,-16 2,-32 5,-49 -77,-71 -166,-134 -265,-183 -383,-193 -824,-150 -1155,75 143,13 286,52 423,121zm-1961 3012c55,123 127,238 214,342 7,-164 40,-322 94,-471l-308 129z"/>
   <path class="fil22" d="M24047 12694c8,5 16,10 22,15l345 -129c-96,-41 -204,-60 -316,-52l-16 2c-85,8 -166,31 -238,67 51,22 102,45 152,71 17,9 34,17 51,26zm792 1318c0,0 5,-91 -38,-216 0,0 29,-184 -36,-389l205 -156c0,0 227,393 -131,761z"/>
  </g>
 </g>
</svg>
