<?xml version="1.0" encoding="UTF-8"?>
<!DOCTYPE svg PUBLIC "-//W3C//DTD SVG 1.1//EN" "http://www.w3.org/Graphics/SVG/1.1/DTD/svg11.dtd">
<!-- Creator: CorelDRAW X7 -->
<svg xmlns="http://www.w3.org/2000/svg" xml:space="preserve" width="279.4mm" height="215.9mm" version="1.1" style="shape-rendering:geometricPrecision; text-rendering:geometricPrecision; image-rendering:optimizeQuality; fill-rule:evenodd; clip-rule:evenodd"
viewBox="0 0 27940 21590"
 xmlns:xlink="http://www.w3.org/1999/xlink">
 <defs>
  <style type="text/css">
   <![CDATA[
    .fil3 {fill:none}
    .fil1 {fill:#FEFEFE}
    .fil2 {fill:#E6E7E8}
    .fil5 {fill:#D2D3D5}
    .fil0 {fill:black}
    .fil4 {fill:url(#id1)}
    .fil6 {fill:url(#id2)}
    .fil7 {fill:url(#id3)}
   ]]>
  </style>
    <clipPath id="id0">
     <path d="M16261 7726l3341 -1246 -2571 1958 0 0c67,143 104,303 104,471 0,208 -69,495 -112,700 85,601 449,1308 449,1308 75,111 119,245 119,389 0,386 -313,699 -699,699 -386,0 -655,-577 -1392,-828l0 0 0 0c-63,-22 -130,-41 -200,-57 -1,0 -44,-11 -48,-12 -19,-5 -35,-10 -44,-12 -581,-176 -1005,-715 -1005,-1353 0,-16 1,-31 1,-47 -3,46 -5,91 -5,137 0,773 480,1435 1158,1703l0 0 24 11c194,753 637,1406 1236,1866 -120,92 -246,176 -378,252 -152,-430 -432,-819 -829,-1106 -9,-8 -19,-15 -30,-21 -875,-615 -1747,-495 -2503,-390 -906,125 -1608,222 -1754,-1576 -2,-26 -9,-51 -19,-74 96,-1745 1495,-3143 3241,-3235 -2,-25 -4,-53 -5,-87 -7,-227 71,-563 527,-783 745,-359 1150,-436 1150,-436 0,0 342,-12 -568,1425 244,68 477,162 696,279l-267 196 383 -131 0 0 0 0zm-5854 3197l-600 251 -193 81c-6,58 -19,116 -42,173 -128,329 -499,491 -828,363 -329,-129 -491,-500 -362,-829 65,-166 191,-289 343,-354 274,-118 225,-231 345,-538 107,-274 234,-375 120,-613 -75,-154 -87,-338 -20,-510 129,-329 500,-491 829,-362 328,128 491,499 362,828 -22,57 -52,110 -88,156l87 191 278 607 124 48c-15,12 -28,25 -39,40 -123,143 -230,300 -316,468zm-721 -1538c113,44 240,-12 284,-125 45,-113 -11,-240 -124,-285 -113,-44 -241,12 -285,125 -44,113 12,241 125,285zm-504 1890c44,-113 -12,-240 -125,-284 -113,-45 -240,11 -284,124 -45,113 11,241 124,285 113,44 241,-12 285,-125zm7166 -1474c60,-188 7,-403 -152,-541 -111,-97 -254,-138 -391,-123 -59,188 -6,402 152,541 112,97 254,137 391,123zm1124 1116l0 0z"/>
    </clipPath>
  <linearGradient id="id1" gradientUnits="userSpaceOnUse" x1="11747.7" y1="10770.1" x2="14780.5" y2="15523.9">
   <stop offset="0" style="stop-opacity:1; stop-color:#4AC7EC"/>
   <stop offset="0.270588" style="stop-opacity:1; stop-color:#9ED889"/>
   <stop offset="0.34902" style="stop-opacity:1; stop-color:#C9509C"/>
   <stop offset="1" style="stop-opacity:1; stop-color:#F2EA26"/>
  </linearGradient>
  <linearGradient id="id2" gradientUnits="userSpaceOnUse" x1="10504.3" y1="7395.55" x2="13130.4" y2="11928.2">
   <stop offset="0" style="stop-opacity:1; stop-color:#4AC7EC"/>
   <stop offset="0.270588" style="stop-opacity:1; stop-color:#A4E2F5"/>
   <stop offset="0.34902" style="stop-opacity:1; stop-color:#C9509C"/>
   <stop offset="0.74902" style="stop-opacity:1; stop-color:#FCE51F"/>
   <stop offset="1" style="stop-opacity:1; stop-color:#FEFEFE"/>
  </linearGradient>
  <linearGradient id="id3" gradientUnits="userSpaceOnUse" x1="16033.4" y1="8278.83" x2="17595.5" y2="8341.31">
   <stop offset="0" style="stop-opacity:1; stop-color:#4AC7EC"/>
   <stop offset="0.270588" style="stop-opacity:1; stop-color:#9ED889"/>
   <stop offset="0.388235" style="stop-opacity:1; stop-color:#C9509C"/>
   <stop offset="1" style="stop-opacity:1; stop-color:#F2EA26"/>
  </linearGradient>
 </defs>
 <g id="Layer_x0020_1">
  <metadata id="CorelCorpID_0Corel-Layer"/>
  <g id="_376894272">
   <path class="fil0" d="M13915 5625c522,0 1023,89 1490,252 294,-112 480,-158 541,-171 22,-7 46,-10 71,-10 1,0 418,-7 280,576 141,-46 216,-61 217,-61l0 1c17,-3 34,-5 52,-5 1,0 364,-3 258,481 145,123 284,256 413,396l2260 -843c108,-48 238,-17 313,80 87,115 65,278 -49,366l-1830 1393c316,616 495,1315 495,2056 0,1592 -825,2991 -2070,3794 63,283 75,577 32,866 -53,359 -189,712 -415,1029 -5,6 -11,15 -19,25 -38,57 -99,100 -173,112 -142,23 -276,-72 -300,-215 -40,-238 -126,-469 -256,-677 -119,-190 -274,-362 -464,-503 -274,52 -557,80 -846,80 -413,0 -813,-56 -1193,-160 -1081,153 -2103,165 -2479,-1463 -105,8 -212,4 -318,-12 -191,-29 -381,-98 -555,-210 -3,-2 -7,-4 -11,-7 -60,-35 -105,-95 -121,-169 -31,-141 59,-279 200,-310 115,-25 225,-72 324,-141 32,-22 62,-47 92,-73 -58,-119 -110,-241 -158,-365 -94,125 -218,221 -358,283 -211,92 -457,104 -688,14l-1 -1c-231,-90 -404,-266 -496,-477 -93,-211 -104,-457 -14,-689 45,-114 111,-214 192,-298 83,-86 183,-154 292,-201 90,-39 104,-84 130,-171 18,-61 39,-132 74,-222 30,-77 61,-140 89,-197 42,-87 70,-144 39,-209 -53,-110 -84,-232 -88,-356 -5,-120 14,-243 61,-361 81,-207 230,-367 412,-465 118,-63 251,-100 387,-106 114,-266 274,-512 475,-725 14,-15 29,-31 44,-46 819,-1142 2157,-1885 3669,-1885z"/>
   <path class="fil1" d="M16261 7726l3341 -1246 -2571 1958 0 0c67,143 104,303 104,471 0,208 -69,495 -112,700 85,601 449,1308 449,1308 75,111 119,245 119,389 0,386 -313,699 -699,699 -386,0 -655,-577 -1392,-828l0 0 0 0c-63,-22 -130,-41 -200,-57 -1,0 -44,-11 -48,-12 -19,-5 -35,-10 -44,-12 -581,-176 -1005,-715 -1005,-1353 0,-16 1,-31 1,-47 -3,46 -5,91 -5,137 0,773 480,1435 1158,1703l0 0 24 11c194,753 637,1406 1236,1866 -120,92 -246,176 -378,252 -152,-430 -432,-819 -829,-1106 -9,-8 -19,-15 -30,-21 -875,-615 -1747,-495 -2503,-390 -906,125 -1608,222 -1754,-1576 -2,-26 -9,-51 -19,-74 96,-1745 1495,-3143 3241,-3235 -2,-25 -4,-53 -5,-87 -7,-227 71,-563 527,-783 745,-359 1150,-436 1150,-436 0,0 342,-12 -568,1425 244,68 477,162 696,279l-267 196 383 -131 0 0 0 0zm-5854 3197l-600 251 -193 81c-6,58 -19,116 -42,173 -128,329 -499,491 -828,363 -329,-129 -491,-500 -362,-829 65,-166 191,-289 343,-354 274,-118 225,-231 345,-538 107,-274 234,-375 120,-613 -75,-154 -87,-338 -20,-510 129,-329 500,-491 829,-362 328,128 491,499 362,828 -22,57 -52,110 -88,156l87 191 278 607 124 48c-15,12 -28,25 -39,40 -123,143 -230,300 -316,468zm-721 -1538c113,44 240,-12 284,-125 45,-113 -11,-240 -124,-285 -113,-44 -241,12 -285,125 -44,113 12,241 125,285zm-504 1890c44,-113 -12,-240 -125,-284 -113,-45 -240,11 -284,124 -45,113 11,241 124,285 113,44 241,-12 285,-125zm7166 -1474c60,-188 7,-403 -152,-541 -111,-97 -254,-138 -391,-123 -59,188 -6,402 152,541 112,97 254,137 391,123zm1124 1116l0 0z"/>
   <g style="clip-path:url(#id0)">
    <g>
     <path id="1" class="fil2" d="M14204 9696c0,0 -396,1667 177,2552 573,884 1392,2112 2227,2177 835,66 881,-929 737,-1064 -144,-135 -1563,-1428 -1603,-1537 -40,-109 -1670,-830 -1538,-2128z"/>
    </g>
   </g>
   <path class="fil3" d="M16261 7726l3341 -1246 -2571 1958 0 0c67,143 104,303 104,471 0,208 -69,495 -112,700 85,601 449,1308 449,1308 75,111 119,245 119,389 0,386 -313,699 -699,699 -386,0 -655,-577 -1392,-828l0 0 0 0c-63,-22 -130,-41 -200,-57 -1,0 -44,-11 -48,-12 -19,-5 -35,-10 -44,-12 -581,-176 -1005,-715 -1005,-1353 0,-16 1,-31 1,-47 -3,46 -5,91 -5,137 0,773 480,1435 1158,1703l0 0 24 11c194,753 637,1406 1236,1866 -120,92 -246,176 -378,252 -152,-430 -432,-819 -829,-1106 -9,-8 -19,-15 -30,-21 -875,-615 -1747,-495 -2503,-390 -906,125 -1608,222 -1754,-1576 -2,-26 -9,-51 -19,-74 96,-1745 1495,-3143 3241,-3235 -2,-25 -4,-53 -5,-87 -7,-227 71,-563 527,-783 745,-359 1150,-436 1150,-436 0,0 342,-12 -568,1425 244,68 477,162 696,279l-267 196 383 -131 0 0 0 0zm-5854 3197l-600 251 -193 81c-6,58 -19,116 -42,173 -128,329 -499,491 -828,363 -329,-129 -491,-500 -362,-829 65,-166 191,-289 343,-354 274,-118 225,-231 345,-538 107,-274 234,-375 120,-613 -75,-154 -87,-338 -20,-510 129,-329 500,-491 829,-362 328,128 491,499 362,828 -22,57 -52,110 -88,156l87 191 278 607 124 48c-15,12 -28,25 -39,40 -123,143 -230,300 -316,468zm-721 -1538c113,44 240,-12 284,-125 45,-113 -11,-240 -124,-285 -113,-44 -241,12 -285,125 -44,113 12,241 125,285zm-504 1890c44,-113 -12,-240 -125,-284 -113,-45 -240,11 -284,124 -45,113 11,241 124,285 113,44 241,-12 285,-125zm7166 -1474c60,-188 7,-403 -152,-541 -111,-97 -254,-138 -391,-123 -59,188 -6,402 152,541 112,97 254,137 391,123zm1124 1116l0 0z"/>
   <path class="fil4" d="M14881 14332c475,339 768,839 857,1373 8,-11 15,-21 22,-31 677,-950 456,-2268 -493,-2945 -1972,-1405 -4086,1304 -4366,-2140 -356,406 -558,947 -521,1528 242,3817 3092,1211 4501,2215z"/>
   <path class="fil5" d="M16100 6623c-65,152 -154,331 -275,542 143,-76 304,-124 476,-136 39,-3 77,-4 115,-3 173,-318 198,-455 186,-514 -9,-46 -39,-45 -39,-45 0,0 -6,2 -17,4 -48,11 -201,50 -446,152z"/>
   <path class="fil6" d="M10172 12138c-57,76 -123,143 -194,201 -143,116 -310,194 -485,232l18 12c226,145 483,201 731,179 0,-3 -1,-5 -1,-8 -31,-186 -54,-391 -69,-616zm1545 -3759c370,-451 847,-811 1392,-1042 -567,-327 -1274,-400 -1929,-138 -559,224 -977,650 -1203,1160 28,7 56,16 83,26 10,3 20,7 29,11 108,45 202,109 280,188 50,-25 102,-48 155,-69 393,-157 803,-197 1193,-136zm-801 1873c83,-694 361,-1327 777,-1844 -421,19 -825,165 -1160,412 3,7 6,14 9,21 85,194 98,420 19,633l-51 112 282 617 124 49zm1782 -3234c164,82 309,187 433,310 314,-131 651,-219 1003,-257 2,-24 4,-48 8,-71 -112,-104 -240,-194 -384,-266 -555,-279 -1192,-217 -1672,109 207,18 415,75 612,175zm-2837 4360c79,178 183,344 308,495 11,-237 58,-466 136,-681l-444 186z"/>
   <path class="fil7" d="M16243 7478c11,6 22,13 32,21l499 -187c-140,-59 -296,-86 -458,-75l-23 2c-123,12 -240,46 -345,97 74,32 148,66 221,103 25,13 49,25 74,39zm1146 1908c0,0 7,-132 -54,-314 0,0 41,-267 -53,-563l296 -226c0,0 329,569 -189,1103z"/>
  </g>
 </g>
</svg>
