<?xml version="1.0" encoding="UTF-8"?>
<!DOCTYPE svg PUBLIC "-//W3C//DTD SVG 1.1//EN" "http://www.w3.org/Graphics/SVG/1.1/DTD/svg11.dtd">
<!-- Creator: CorelDRAW X7 -->
<svg xmlns="http://www.w3.org/2000/svg" xml:space="preserve" width="279.4mm" height="215.9mm" version="1.1" style="shape-rendering:geometricPrecision; text-rendering:geometricPrecision; image-rendering:optimizeQuality; fill-rule:evenodd; clip-rule:evenodd"
viewBox="0 0 27940 21590"
 xmlns:xlink="http://www.w3.org/1999/xlink">
 <defs>
  <style type="text/css">
   <![CDATA[
    .fil3 {fill:none}
    .fil1 {fill:#FEFEFE}
    .fil2 {fill:#E6E7E8}
    .fil5 {fill:#D2D3D5}
    .fil0 {fill:black}
    .fil4 {fill:url(#id1)}
    .fil6 {fill:url(#id2)}
    .fil7 {fill:url(#id3)}
   ]]>
  </style>
   <clipPath id="id0">
    <path d="M16261 6430l3341 -1246 -2571 1958 0 0c67,143 104,303 104,472 0,207 -69,494 -112,699 85,601 449,1308 449,1308 75,111 119,245 119,389 0,386 -313,699 -699,699 -386,0 -655,-577 -1392,-828l0 0 0 0c-63,-22 -130,-41 -200,-57 -1,1 -44,-11 -48,-12 -19,-5 -35,-10 -44,-12 -581,-176 -1005,-715 -1005,-1353 0,-15 1,-31 1,-46 -3,45 -5,90 -5,136 0,773 480,1435 1158,1703l0 0 24 11c194,753 637,1406 1236,1866 -120,92 -246,176 -378,252 -152,-430 -432,-819 -829,-1106 -9,-8 -19,-15 -30,-21 -875,-615 -1747,-495 -2503,-390 -906,125 -1608,222 -1754,-1576 -2,-26 -9,-51 -19,-74 96,-1745 1495,-3143 3241,-3235 -2,-25 -4,-53 -5,-87 -7,-227 71,-562 527,-782 745,-360 1150,-437 1150,-437 0,0 342,-12 -568,1426 244,67 477,161 696,279l-267 195 383 -131 0 0 0 0zm-5854 3198l-600 250 -193 81c-6,58 -19,116 -42,173 -128,329 -499,491 -828,363 -329,-129 -491,-500 -362,-829 65,-165 191,-289 343,-354 274,-117 225,-231 345,-538 107,-274 234,-375 120,-613 -75,-154 -87,-338 -20,-510 129,-328 500,-491 829,-362 328,129 491,499 362,828 -22,57 -52,110 -88,156l87 191 278 607 124 49c-15,11 -28,25 -39,40 -123,142 -230,299 -316,468zm-721 -1539c113,44 240,-12 284,-125 45,-113 -11,-240 -124,-284 -113,-45 -241,11 -285,124 -44,113 12,241 125,285zm-504 1891c44,-113 -12,-241 -125,-285 -113,-44 -240,11 -284,124 -45,113 11,241 124,285 113,44 241,-11 285,-124zm7166 -1475c60,-188 7,-402 -152,-540 -111,-98 -254,-138 -391,-124 -59,188 -6,403 152,541 112,97 254,138 391,123zm1124 1116l0 0z"/>
   </clipPath>
  <linearGradient id="id1" gradientUnits="userSpaceOnUse" x1="11747.7" y1="9474.29" x2="14780.5" y2="14228.1">
   <stop offset="0" style="stop-opacity:1; stop-color:#4AC7EC"/>
   <stop offset="0.270588" style="stop-opacity:1; stop-color:#9ED889"/>
   <stop offset="0.34902" style="stop-opacity:1; stop-color:#C9509C"/>
   <stop offset="1" style="stop-opacity:1; stop-color:#F2EA26"/>
  </linearGradient>
  <linearGradient id="id2" gradientUnits="userSpaceOnUse" x1="10504.3" y1="6099.71" x2="13130.4" y2="10632.3">
   <stop offset="0" style="stop-opacity:1; stop-color:#4AC7EC"/>
   <stop offset="0.270588" style="stop-opacity:1; stop-color:#A4E2F5"/>
   <stop offset="0.34902" style="stop-opacity:1; stop-color:#C9509C"/>
   <stop offset="0.74902" style="stop-opacity:1; stop-color:#FCE51F"/>
   <stop offset="1" style="stop-opacity:1; stop-color:#FEFEFE"/>
  </linearGradient>
  <linearGradient id="id3" gradientUnits="userSpaceOnUse" x1="16033.4" y1="6982.99" x2="17595.5" y2="7045.47">
   <stop offset="0" style="stop-opacity:1; stop-color:#4AC7EC"/>
   <stop offset="0.270588" style="stop-opacity:1; stop-color:#9ED889"/>
   <stop offset="0.388235" style="stop-opacity:1; stop-color:#C9509C"/>
   <stop offset="1" style="stop-opacity:1; stop-color:#F2EA26"/>
  </linearGradient>
 </defs>
 <g id="Layer_x0020_1">
  <metadata id="CorelCorpID_0Corel-Layer"/>
  <path class="fil0" d="M8989 14969c110,0 215,22 315,67 100,44 188,105 264,180 75,76 136,164 180,265 45,101 67,209 67,324 0,113 -21,219 -65,318 -44,100 -103,188 -177,264 -75,76 -163,135 -264,179 -101,43 -210,65 -327,65 -114,0 -222,-20 -322,-62 -99,-41 -187,-98 -263,-172 -76,-73 -135,-160 -179,-261 -43,-101 -65,-212 -65,-331 0,-115 21,-222 63,-322 43,-100 101,-187 176,-261 75,-75 163,-135 265,-179 102,-45 213,-70 332,-74zm-7 216c-85,0 -164,16 -239,49 -74,32 -140,76 -196,132 -56,56 -101,122 -133,198 -32,76 -48,156 -48,241 0,85 16,165 48,239 32,75 77,140 133,197 56,56 122,100 196,132 75,32 154,48 239,48 85,0 166,-16 241,-48 76,-32 142,-76 198,-132 57,-57 101,-122 133,-197 32,-74 48,-154 48,-239 0,-85 -16,-165 -48,-241 -32,-76 -76,-142 -133,-198 -56,-56 -122,-100 -198,-132 -75,-33 -156,-49 -241,-49zm1088 -117c0,-29 11,-55 31,-75 21,-21 46,-31 76,-31 30,0 55,10 76,31 20,20 31,46 31,75l0 169c73,-80 161,-146 265,-198 103,-52 215,-77 337,-77 37,0 66,10 88,31 22,20 33,46 33,75 0,30 -11,55 -33,76 -22,21 -51,31 -88,31 -83,0 -159,16 -231,48 -71,32 -133,76 -187,131 -54,55 -98,118 -131,189 -33,72 -51,146 -53,224l0 761c0,30 -11,55 -31,76 -21,20 -46,31 -76,31 -30,0 -55,-11 -76,-31 -20,-21 -31,-46 -31,-76l0 -1460zm2396 38c0,-30 11,-55 31,-76 21,-20 46,-30 76,-30 30,0 55,10 76,30 20,21 31,46 31,76l0 1329c0,112 -22,219 -66,318 -43,100 -102,188 -177,264 -75,76 -162,135 -263,179 -101,43 -210,65 -327,65 -117,0 -225,-20 -324,-62 -99,-41 -186,-98 -262,-172l-3 -3c-21,-21 -31,-45 -31,-73 0,-29 11,-55 33,-77 21,-22 47,-33 77,-33 30,0 54,9 72,28 58,57 123,102 197,134 73,32 153,48 241,48 84,0 165,-16 241,-48 75,-32 141,-76 197,-132 57,-57 101,-122 133,-197 32,-74 48,-154 48,-239l0 -76c-76,85 -167,152 -273,202 -107,49 -223,74 -346,74 -115,0 -223,-21 -322,-62 -100,-42 -188,-99 -264,-172 -75,-74 -135,-161 -179,-262 -43,-101 -65,-211 -65,-331 0,-114 21,-222 64,-321 42,-100 101,-187 175,-262 75,-75 163,-134 265,-179 102,-45 213,-69 332,-74 120,2 232,29 338,79 105,51 197,119 275,207l0 -152zm0 678c-4,-82 -23,-160 -57,-232 -33,-72 -78,-135 -134,-189 -56,-54 -121,-97 -194,-128 -74,-31 -152,-46 -234,-46 -85,0 -165,16 -240,48 -74,32 -140,76 -196,133 -56,56 -100,122 -132,198 -33,75 -49,156 -49,240 0,85 16,165 49,240 32,74 76,140 132,196 56,56 122,100 196,133 75,32 155,48 240,48 82,0 160,-16 234,-47 73,-31 138,-73 194,-125 56,-53 101,-115 134,-186 34,-71 53,-148 57,-231l0 -52zm1814 537c-75,85 -167,158 -273,219 -107,61 -222,91 -346,91 -115,0 -222,-20 -322,-62 -100,-41 -188,-98 -263,-172 -76,-73 -136,-160 -179,-261 -44,-101 -66,-212 -66,-331 0,-115 21,-223 64,-325 42,-102 101,-191 175,-267 75,-76 163,-135 265,-179 103,-44 213,-65 333,-65 110,0 215,22 315,67 99,44 187,105 263,180 76,76 136,164 181,265 44,101 67,209 67,324l0 726c0,30 -10,56 -31,76 -21,21 -46,31 -76,31 -30,0 -55,-10 -76,-31 -20,-20 -31,-46 -31,-76l0 -210zm0 -516c0,-85 -16,-165 -48,-241 -32,-76 -76,-142 -132,-198 -57,-56 -123,-100 -198,-132 -76,-33 -156,-49 -241,-49 -85,0 -165,16 -240,49 -74,32 -140,76 -196,132 -56,56 -100,122 -132,198 -32,76 -48,156 -48,241 0,85 16,165 48,239 32,75 76,140 132,197 56,56 122,100 196,132 75,32 155,48 240,48 82,0 160,-15 234,-46 73,-31 138,-74 194,-129 57,-55 101,-120 135,-195 33,-74 52,-156 56,-246zm410 -406c0,-80 16,-148 48,-203 32,-55 75,-100 128,-135 52,-34 112,-59 179,-74 66,-14 133,-22 199,-22 55,0 114,6 176,19 62,13 119,32 172,57 53,25 96,56 131,93 34,36 51,80 51,131 0,25 -8,49 -25,74 -18,24 -46,36 -85,36 -43,0 -77,-25 -100,-76 -20,-44 -60,-76 -120,-98 -60,-22 -126,-33 -200,-33 -39,0 -78,3 -118,9 -41,6 -77,17 -109,34 -32,17 -59,41 -81,71 -22,30 -33,69 -33,117 0,34 11,64 33,89 22,26 50,47 83,64 33,17 70,30 110,40 40,9 79,17 115,24 85,13 165,34 240,60 74,26 140,60 196,102 56,41 101,90 134,148 33,57 50,123 50,199 0,76 -16,145 -48,208 -32,64 -77,118 -133,162 -56,45 -122,79 -198,104 -75,24 -156,36 -241,36 -144,0 -271,-34 -380,-100 -109,-67 -182,-158 -219,-276 -2,-6 -3,-17 -3,-31 0,-29 10,-56 29,-79 20,-23 45,-34 78,-34 25,0 47,7 67,22 19,15 35,35 46,61 30,73 81,129 153,166 73,38 149,57 229,57 113,0 209,-26 288,-77 79,-52 119,-125 119,-219 0,-76 -40,-140 -118,-193 -78,-52 -174,-87 -289,-103 -165,-23 -299,-68 -401,-136 -102,-68 -153,-166 -153,-294zm1339 0c0,-80 16,-148 48,-203 33,-55 75,-100 128,-135 53,-34 112,-59 179,-74 66,-14 133,-22 199,-22 55,0 114,6 176,19 62,13 119,32 172,57 53,25 96,56 131,93 34,36 52,80 52,131 0,25 -9,49 -26,74 -17,24 -46,36 -85,36 -43,0 -76,-25 -99,-76 -21,-44 -61,-76 -121,-98 -60,-22 -126,-33 -200,-33 -39,0 -78,3 -118,9 -41,6 -77,17 -109,34 -32,17 -59,41 -81,71 -21,30 -32,69 -32,117 0,34 11,64 32,89 22,26 50,47 83,64 33,17 70,30 110,40 40,9 79,17 115,24 85,13 165,34 240,60 74,26 140,60 196,102 56,41 101,90 134,148 33,57 50,123 50,199 0,76 -16,145 -48,208 -32,64 -76,118 -133,162 -56,45 -122,79 -198,104 -75,24 -156,36 -241,36 -144,0 -271,-34 -380,-100 -109,-67 -182,-158 -219,-276 -2,-6 -3,-17 -3,-31 0,-29 10,-56 29,-79 20,-23 46,-34 78,-34 25,0 47,7 67,22 19,15 35,35 46,61 30,73 81,129 153,166 73,38 149,57 229,57 113,0 209,-26 288,-77 79,-52 119,-125 119,-219 0,-76 -39,-140 -117,-193 -78,-52 -175,-87 -290,-103 -165,-23 -299,-68 -401,-136 -102,-68 -153,-166 -153,-294zm1336 -331c0,-29 10,-55 31,-75 21,-21 46,-31 76,-31 29,0 55,10 75,31 21,20 31,46 31,75l0 1460c0,30 -10,55 -31,76 -20,20 -46,31 -75,31 -30,0 -55,-11 -76,-31 -21,-21 -31,-46 -31,-76l0 -1460zm-35 -492c0,-39 14,-72 42,-100 27,-27 61,-41 100,-41 39,0 72,14 99,41 28,28 42,61 42,100 0,39 -14,72 -42,100 -27,27 -60,41 -99,41 -39,0 -73,-14 -100,-41 -28,-28 -42,-61 -42,-100zm462 823c0,-80 16,-148 48,-203 32,-55 75,-100 127,-135 53,-34 113,-59 179,-74 67,-14 133,-22 200,-22 55,0 114,6 176,19 62,13 119,32 172,57 52,25 96,56 130,93 35,36 52,80 52,131 0,25 -8,49 -26,74 -17,24 -45,36 -84,36 -44,0 -77,-25 -100,-76 -21,-44 -61,-76 -120,-98 -60,-22 -127,-33 -200,-33 -39,0 -79,3 -119,9 -40,6 -76,17 -108,34 -32,17 -59,41 -81,71 -22,30 -33,69 -33,117 0,34 11,64 33,89 22,26 49,47 82,64 34,17 70,30 111,40 40,9 78,17 115,24 85,13 165,34 239,60 75,26 140,60 196,102 57,41 101,90 135,148 33,57 50,123 50,199 0,76 -16,145 -49,208 -32,64 -76,118 -132,162 -56,45 -122,79 -198,104 -76,24 -156,36 -241,36 -145,0 -271,-34 -380,-100 -109,-67 -182,-158 -219,-276 -2,-6 -3,-17 -3,-31 0,-29 9,-56 29,-79 19,-23 45,-34 77,-34 26,0 48,7 67,22 20,15 35,35 47,61 30,73 81,129 153,166 72,38 149,57 229,57 112,0 208,-26 287,-77 80,-52 119,-125 119,-219 0,-76 -39,-140 -117,-193 -78,-52 -174,-87 -289,-103 -165,-23 -299,-68 -401,-136 -102,-68 -153,-166 -153,-294zm1518 -857c0,-30 10,-55 31,-76 21,-21 46,-31 76,-31 29,0 55,10 75,31 21,21 31,46 31,76l0 420 230 0c30,0 55,10 76,31 21,20 32,46 32,75 0,30 -11,55 -32,76 -21,21 -46,31 -76,31l-230 0 0 1353c0,30 -10,55 -30,76 -21,20 -45,31 -75,31 -29,0 -54,-11 -74,-31 -20,-21 -31,-46 -31,-76l0 -1353 -229 0c-31,0 -56,-10 -76,-31 -22,-21 -32,-46 -32,-76 0,-29 10,-55 31,-75 21,-21 46,-31 76,-31l227 0 0 -420z"/>
  <path class="fil0" d="M13915 4329c522,0 1023,89 1490,252 294,-112 480,-158 541,-171 22,-7 46,-10 71,-10 1,0 418,-7 280,576 141,-46 216,-60 217,-61l0 1c17,-3 34,-5 52,-5 1,0 364,-3 258,481 145,123 284,256 413,396l2260 -843c108,-47 238,-17 313,80 87,115 65,279 -49,366l-1830 1393c316,617 495,1315 495,2056 0,1592 -825,2991 -2070,3794 63,283 75,577 32,866 -53,359 -189,712 -415,1029 -5,6 -11,15 -19,25 -38,58 -99,100 -173,112 -142,24 -276,-72 -300,-214 -40,-239 -126,-469 -256,-678 -119,-190 -274,-361 -464,-503 -274,52 -557,80 -846,80 -413,0 -813,-56 -1193,-160 -1081,153 -2103,165 -2479,-1463 -105,8 -212,4 -318,-12 -191,-29 -381,-98 -555,-210 -3,-1 -7,-4 -11,-6 -60,-36 -105,-96 -121,-169 -31,-141 59,-280 200,-311 115,-25 225,-72 324,-141 32,-22 62,-47 92,-73 -58,-119 -110,-241 -158,-365 -94,125 -218,222 -358,283 -211,92 -457,104 -688,14l-1 0c-231,-91 -404,-267 -496,-478 -93,-211 -104,-457 -14,-688 45,-115 111,-215 192,-299 83,-86 183,-154 292,-201 90,-38 104,-84 130,-171 18,-60 39,-131 74,-222 30,-77 61,-140 89,-197 42,-87 70,-144 39,-209 -53,-110 -84,-232 -88,-356 -5,-120 14,-243 61,-361 81,-207 230,-367 412,-464 118,-64 251,-101 387,-107 114,-266 274,-512 475,-725 14,-15 29,-31 44,-46 819,-1141 2157,-1885 3669,-1885z"/>
  <path class="fil1" d="M16261 6430l3341 -1246 -2571 1958 0 0c67,143 104,303 104,472 0,207 -69,494 -112,699 85,601 449,1308 449,1308 75,111 119,245 119,389 0,386 -313,699 -699,699 -386,0 -655,-577 -1392,-828l0 0 0 0c-63,-22 -130,-41 -200,-57 -1,1 -44,-11 -48,-12 -19,-5 -35,-10 -44,-12 -581,-176 -1005,-715 -1005,-1353 0,-15 1,-31 1,-46 -3,45 -5,90 -5,136 0,773 480,1435 1158,1703l0 0 24 11c194,753 637,1406 1236,1866 -120,92 -246,176 -378,252 -152,-430 -432,-819 -829,-1106 -9,-8 -19,-15 -30,-21 -875,-615 -1747,-495 -2503,-390 -906,125 -1608,222 -1754,-1576 -2,-26 -9,-51 -19,-74 96,-1745 1495,-3143 3241,-3235 -2,-25 -4,-53 -5,-87 -7,-227 71,-562 527,-782 745,-360 1150,-437 1150,-437 0,0 342,-12 -568,1426 244,67 477,161 696,279l-267 195 383 -131 0 0 0 0zm-5854 3198l-600 250 -193 81c-6,58 -19,116 -42,173 -128,329 -499,491 -828,363 -329,-129 -491,-500 -362,-829 65,-165 191,-289 343,-354 274,-117 225,-231 345,-538 107,-274 234,-375 120,-613 -75,-154 -87,-338 -20,-510 129,-328 500,-491 829,-362 328,129 491,499 362,828 -22,57 -52,110 -88,156l87 191 278 607 124 49c-15,11 -28,25 -39,40 -123,142 -230,299 -316,468zm-721 -1539c113,44 240,-12 284,-125 45,-113 -11,-240 -124,-284 -113,-45 -241,11 -285,124 -44,113 12,241 125,285zm-504 1891c44,-113 -12,-241 -125,-285 -113,-44 -240,11 -284,124 -45,113 11,241 124,285 113,44 241,-11 285,-124zm7166 -1475c60,-188 7,-402 -152,-540 -111,-98 -254,-138 -391,-124 -59,188 -6,403 152,541 112,97 254,138 391,123zm1124 1116l0 0z"/>
  <g style="clip-path:url(#id0)">
   <g id="_598014376">
    <path id="1" class="fil2" d="M14204 8401c0,0 -396,1667 177,2551 573,884 1392,2112 2227,2178 835,65 881,-930 737,-1065 -144,-135 -1563,-1428 -1603,-1537 -40,-109 -1670,-830 -1538,-2127z"/>
   </g>
  </g>
  <path class="fil3" d="M16261 6430l3341 -1246 -2571 1958 0 0c67,143 104,303 104,472 0,207 -69,494 -112,699 85,601 449,1308 449,1308 75,111 119,245 119,389 0,386 -313,699 -699,699 -386,0 -655,-577 -1392,-828l0 0 0 0c-63,-22 -130,-41 -200,-57 -1,1 -44,-11 -48,-12 -19,-5 -35,-10 -44,-12 -581,-176 -1005,-715 -1005,-1353 0,-15 1,-31 1,-46 -3,45 -5,90 -5,136 0,773 480,1435 1158,1703l0 0 24 11c194,753 637,1406 1236,1866 -120,92 -246,176 -378,252 -152,-430 -432,-819 -829,-1106 -9,-8 -19,-15 -30,-21 -875,-615 -1747,-495 -2503,-390 -906,125 -1608,222 -1754,-1576 -2,-26 -9,-51 -19,-74 96,-1745 1495,-3143 3241,-3235 -2,-25 -4,-53 -5,-87 -7,-227 71,-562 527,-782 745,-360 1150,-437 1150,-437 0,0 342,-12 -568,1426 244,67 477,161 696,279l-267 195 383 -131 0 0 0 0zm-5854 3198l-600 250 -193 81c-6,58 -19,116 -42,173 -128,329 -499,491 -828,363 -329,-129 -491,-500 -362,-829 65,-165 191,-289 343,-354 274,-117 225,-231 345,-538 107,-274 234,-375 120,-613 -75,-154 -87,-338 -20,-510 129,-328 500,-491 829,-362 328,129 491,499 362,828 -22,57 -52,110 -88,156l87 191 278 607 124 49c-15,11 -28,25 -39,40 -123,142 -230,299 -316,468zm-721 -1539c113,44 240,-12 284,-125 45,-113 -11,-240 -124,-284 -113,-45 -241,11 -285,124 -44,113 12,241 125,285zm-504 1891c44,-113 -12,-241 -125,-285 -113,-44 -240,11 -284,124 -45,113 11,241 124,285 113,44 241,-11 285,-124zm7166 -1475c60,-188 7,-402 -152,-540 -111,-98 -254,-138 -391,-124 -59,188 -6,403 152,541 112,97 254,138 391,123zm1124 1116l0 0z"/>
  <path class="fil4" d="M14881 13036c475,339 768,839 857,1373 8,-10 15,-21 22,-31 677,-949 456,-2268 -493,-2944 -1972,-1406 -4086,1303 -4366,-2140 -356,405 -558,946 -521,1527 242,3817 3092,1211 4501,2215z"/>
  <path class="fil5" d="M16100 5327c-65,152 -154,331 -275,542 143,-76 304,-123 476,-136 39,-3 77,-3 115,-3 173,-318 198,-455 186,-514 -9,-45 -39,-44 -39,-44 0,0 -6,1 -17,3 -48,11 -201,51 -446,152z"/>
  <path class="fil6" d="M10172 10842c-57,76 -123,143 -194,201 -143,116 -310,194 -485,232l18 12c226,145 483,202 731,179 0,-2 -1,-5 -1,-8 -31,-186 -54,-390 -69,-616zm1545 -3759c370,-451 847,-811 1392,-1042 -567,-327 -1274,-400 -1929,-138 -559,224 -977,650 -1203,1160 28,7 56,16 83,26 10,3 20,7 29,12 108,44 202,109 280,187 50,-25 102,-48 155,-69 393,-157 803,-197 1193,-136zm-801 1873c83,-694 361,-1327 777,-1844 -421,19 -825,165 -1160,412 3,7 6,14 9,21 85,194 98,420 19,634l-51 112 282 616 124 49zm1782 -3234c164,82 309,188 433,310 314,-131 651,-219 1003,-257 2,-24 4,-48 8,-71 -112,-104 -240,-194 -384,-266 -555,-279 -1192,-216 -1672,109 207,18 415,75 612,175zm-2837 4360c79,178 183,345 308,495 11,-237 58,-466 136,-681l-444 186z"/>
  <path class="fil7" d="M16243 6182c11,6 22,13 32,21l499 -187c-140,-59 -296,-86 -458,-75l-23 2c-123,12 -240,46 -345,97 74,32 148,66 221,103 25,13 49,26 74,39zm1146 1908c0,0 7,-132 -54,-314 0,0 41,-266 -53,-563l296 -226c0,0 329,569 -189,1103z"/>
 </g>
</svg>
